<?xml version="1.0" encoding="UTF-8" standalone="no"?>
<!-- Created with Inkscape (http://www.inkscape.org/) -->

<svg
   xmlns:dc="http://purl.org/dc/elements/1.1/"
   xmlns:cc="http://creativecommons.org/ns#"
   xmlns:rdf="http://www.w3.org/1999/02/22-rdf-syntax-ns#"
   xmlns:svg="http://www.w3.org/2000/svg"
   xmlns="http://www.w3.org/2000/svg"
   xmlns:sodipodi="http://sodipodi.sourceforge.net/DTD/sodipodi-0.dtd"
   xmlns:inkscape="http://www.inkscape.org/namespaces/inkscape"
   width="16.358919mm"
   height="17.19792mm"
   viewBox="0 0 16.35892 17.197919"
   version="1.1"
   id="svg292"
   inkscape:version="0.92.3 (2405546, 2018-03-11)"
   sodipodi:docname="app_download.svg">
  <defs
     id="defs286">
    <clipPath
       id="clip1">
      <rect
         style="fill:#ffffff"
         y="0"
         x="0"
         width="68"
         height="110.901"
         transform="translate(175,32)"
         id="rect254" />
    </clipPath>
    <linearGradient
       id="paint1_linear"
       x1="195.599"
       y1="66.098701"
       x2="222.34"
       y2="66.098701"
       gradientUnits="userSpaceOnUse">
      <stop
         offset="2.66389e-07"
         stop-color="#00F3CA"
         id="stop171" />
      <stop
         offset="1"
         stop-color="#24A6E2"
         id="stop173" />
    </linearGradient>
    <linearGradient
       id="paint2_linear"
       x1="176.007"
       y1="77.558601"
       x2="244.457"
       y2="77.558601"
       gradientUnits="userSpaceOnUse">
      <stop
         offset="2.66389e-07"
         stop-color="#00F3CA"
         id="stop176" />
      <stop
         offset="1"
         stop-color="#24A6E2"
         id="stop178" />
    </linearGradient>
    <linearGradient
       id="paint3_linear"
       x1="175"
       y1="122.595"
       x2="243"
       y2="122.595"
       gradientUnits="userSpaceOnUse">
      <stop
         offset="2.66389e-07"
         stop-color="#00F3CA"
         id="stop181" />
      <stop
         offset="1"
         stop-color="#24A6E2"
         id="stop183" />
    </linearGradient>
    <linearGradient
       gradientTransform="matrix(0.26458333,0,0,0.26458333,73.187135,-108.4124)"
       id="paint15_linear"
       x1="72.085403"
       y1="913.5"
       x2="137.004"
       y2="975.25201"
       gradientUnits="userSpaceOnUse">
      <stop
         stop-color="#2E1390"
         id="stop241" />
      <stop
         offset="1"
         stop-color="#00F59D"
         id="stop243" />
    </linearGradient>
  </defs>
  <sodipodi:namedview
     id="base"
     pagecolor="#ffffff"
     bordercolor="#666666"
     borderopacity="1.0"
     inkscape:pageopacity="0.0"
     inkscape:pageshadow="2"
     inkscape:zoom="2.8"
     inkscape:cx="39.257263"
     inkscape:cy="23.100589"
     inkscape:document-units="mm"
     inkscape:current-layer="layer1"
     showgrid="false"
     inkscape:window-width="1366"
     inkscape:window-height="728"
     inkscape:window-x="1600"
     inkscape:window-y="0"
     inkscape:window-maximized="1" />
  <metadata
     id="metadata289">
    <rdf:RDF>
      <cc:Work
         rdf:about="">
        <dc:format>image/svg+xml</dc:format>
        <dc:type
           rdf:resource="http://purl.org/dc/dcmitype/StillImage" />
        <dc:title></dc:title>
      </cc:Work>
    </rdf:RDF>
  </metadata>
  <g
     inkscape:label="Capa 1"
     inkscape:groupmode="layer"
     id="layer1"
     transform="translate(-100.43922,-124.68551)">
    <path
       inkscape:connector-curvature="0"
       style="clip-rule:evenodd;fill:url(#paint15_linear);fill-rule:evenodd;stroke-width:0.26458332"
       id="icon_3"
       d="m 115.65037,128.41164 h -5.16625 v -2.00634 -0.57335 c 0,-0.6305 -0.51647,-1.14644 -1.14803,-1.14644 h -7.46177 c -0.63156,0 -1.14803,0.51594 -1.14803,1.14644 v 0.57335 0.8599 c -0.17224,0 -0.28707,0.11456 -0.28707,0.28654 v 0.28681 c 0,0.17198 0.11483,0.28654 0.28707,0.28654 v 0.28655 c -0.17224,0 -0.28707,0.11483 -0.28707,0.28681 v 0.28654 c 0,0.17198 0.11483,0.28654 0.28707,0.28654 v 0.28681 c -0.17224,0 -0.28707,0.11457 -0.28707,0.28654 v 0.28655 c 0,0.17198 0.11483,0.28681 0.28707,0.28681 v 9.17204 1.14671 c 0,0.6305 0.51647,1.14644 1.14803,1.14644 h 7.46177 c 0.63156,0 1.14803,-0.51594 1.14803,-1.14644 v -1.14671 -2.00633 h 5.16599 c 0.63156,0 1.14803,-0.51594 1.14803,-1.14644 v -4.58629 -1.71979 -0.57309 c 0,-0.63077 -0.51647,-1.1467 -1.14777,-1.1467 z m 0,0.57335 c 0.31565,0 0.57389,0.25797 0.57389,0.57335 v 0.28654 h -11.19294 v -0.28654 c 0,-0.31538 0.25824,-0.57335 0.57388,-0.57335 h 4.87918 z m -10.61905,2.57969 h 11.19294 v -1.14644 h -11.19294 z m -3.73115,-5.73273 c 0,-0.31512 0.2585,-0.57309 0.57415,-0.57309 h 7.46204 c 0.31565,0 0.57388,0.25797 0.57388,0.57309 v 0.57335 h -8.61007 z m 0,13.7586 v 1.14644 c 0,0.31538 0.2585,0.57335 0.57415,0.57335 h 2.97418 c -0.23945,-0.21061 -0.39132,-0.51832 -0.39132,-0.8599 0,-0.34157 0.15187,-0.64955 0.39132,-0.85989 z m 4.30503,1.43298 c -0.31564,0 -0.57388,-0.25797 -0.57388,-0.57309 0,-0.31538 0.25824,-0.57335 0.57388,-0.57335 0.31592,0 0.57415,0.25797 0.57415,0.57335 0,0.31512 -0.25823,0.57309 -0.57415,0.57309 z m 3.73089,0.28681 c 0.31592,0 0.57415,-0.25797 0.57415,-0.57335 v -1.14644 h -3.54806 c 0.23918,0.21034 0.39105,0.51832 0.39105,0.85989 0,0.34158 -0.15187,0.64929 -0.39105,0.8599 z m 0.57415,-2.29314 h -8.61007 v -12.03855 h 8.61007 v 1.43299 h -4.30504 c -0.63129,0 -1.14802,0.51593 -1.14802,1.1467 v 0.57335 1.71979 4.58603 c 0,0.6305 0.51673,1.14644 1.14802,1.14644 h 4.30504 z m 0.57414,-2.0066 h 5.16599 c 0.31565,0 0.57389,-0.25797 0.57389,-0.57309 v -4.29948 h -11.19294 v 4.29948 c 0,0.31512 0.25824,0.57309 0.57388,0.57309 z m -3.73115,-11.46519 h -1.4351 c -0.17198,0 -0.28681,0.11456 -0.28681,0.28654 0,0.17198 0.11483,0.28681 0.28681,0.28681 h 1.4351 c 0.17224,0 0.28707,-0.11483 0.28707,-0.28681 0,-0.17198 -0.11483,-0.28654 -0.28707,-0.28654 z m -2.58313,0 h 0.28708 c 0.17224,0 0.28707,0.11456 0.28707,0.28654 0,0.17198 -0.11483,0.28681 -0.28707,0.28681 h -0.28708 c -0.17198,0 -0.2868,-0.11483 -0.2868,-0.28681 0,-0.17198 0.11482,-0.28654 0.2868,-0.28654 z m 11.19294,8.31241 h -3.73089 c -0.17225,0 -0.28708,0.11456 -0.28708,0.28654 v 2.00634 c 0,0.17198 0.11483,0.28681 0.28708,0.28681 h 3.73089 c 0.17224,0 0.28707,-0.11483 0.28707,-0.28681 v -2.00634 c 0,-0.17198 -0.11483,-0.28654 -0.28707,-0.28654 z m -3.44382,2.00634 h 3.15701 v -1.43325 h -3.15701 z m -6.02721,-2.29315 h 1.4351 c 0.17225,0 0.28707,-0.11456 0.28707,-0.28654 0,-0.17198 -0.11482,-0.28655 -0.28707,-0.28655 h -1.4351 c -0.17198,0 -0.28681,0.11457 -0.28681,0.28655 0,0.17198 0.11483,0.28654 0.28681,0.28654 z m 2.41089,-0.57309 h 1.86557 c 0.17225,0 0.28708,0.11457 0.28708,0.28655 0,0.17198 -0.11483,0.28654 -0.28708,0.28654 h -1.86557 c -0.17225,0 -0.28681,-0.11456 -0.28681,-0.28654 0,-0.17198 0.11456,-0.28655 0.28681,-0.28655 z m 0.43047,1.14644 h -2.84136 c -0.17198,0 -0.28681,0.11457 -0.28681,0.28655 0,0.17198 0.11483,0.28681 0.28681,0.28681 h 2.84136 c 0.14367,0 0.28708,-0.11483 0.28708,-0.28681 0,-0.17198 -0.11483,-0.28655 -0.28708,-0.28655 z m 0.8898,0 h 0.5453 c 0.17225,0 0.28708,0.11457 0.28708,0.28655 0,0.17198 -0.11483,0.28681 -0.28708,0.28681 h -0.5453 c -0.17198,0 -0.28681,-0.11483 -0.28681,-0.28681 0,-0.17198 0.11483,-0.28655 0.28681,-0.28655 z" />
  </g>
</svg>
