<svg width="137" height="12" viewBox="0 0 137 12" fill="none" xmlns="http://www.w3.org/2000/svg">
<path d="M0.355469 0.796875V1.16602H1.44922V8.63086H0.355469V9H4.33398C5.58268 9 6.61263 8.61719 7.42383 7.85156C8.22591 7.09505 8.62695 6.11523 8.62695 4.91211C8.62695 3.38086 8.05729 2.24609 6.91797 1.50781C6.17969 1.03385 5.3138 0.796875 4.32031 0.796875H0.355469ZM4.33398 1.16602C5.44596 1.16602 6.17057 1.70378 6.50781 2.7793C6.67188 3.32617 6.75391 4.01888 6.75391 4.85742C6.75391 6.94466 6.2207 8.16146 5.1543 8.50781C4.9082 8.58984 4.63477 8.63086 4.33398 8.63086H3.13086V1.16602H4.33398ZM12.6465 3.3125C13.2116 3.3125 13.5488 3.64518 13.6582 4.31055C13.6855 4.45638 13.6992 4.60677 13.6992 4.76172C13.6992 5.1901 13.5443 5.45898 13.2344 5.56836C13.0339 5.62305 12.7422 5.64583 12.3594 5.63672L11.3066 5.5957C11.3431 4.30143 11.6849 3.55404 12.332 3.35352C12.4414 3.32617 12.5462 3.3125 12.6465 3.3125ZM15.1484 7.61914L14.8203 7.50977C14.556 8.08398 14.1367 8.46224 13.5625 8.64453C13.3711 8.70833 13.1751 8.74023 12.9746 8.74023C11.9082 8.74023 11.3522 7.83333 11.3066 6.01953C11.3066 6.01042 11.3066 6.0013 11.3066 5.99219L12.6875 6.01953C14.0547 6.04688 14.875 5.85091 15.1484 5.43164C15.2396 5.28581 15.2852 5.11263 15.2852 4.91211C15.2852 4.19206 14.9206 3.64974 14.1914 3.28516C13.7357 3.06641 13.2207 2.95703 12.6465 2.95703C11.5983 2.95703 10.7962 3.33529 10.2402 4.0918C9.84831 4.62956 9.65234 5.28125 9.65234 6.04688C9.65234 7.29557 10.1126 8.1888 11.0332 8.72656C11.5254 9 12.0768 9.13672 12.6875 9.13672C13.7266 9.13672 14.4785 8.76758 14.9434 8.0293C15.0254 7.89258 15.0938 7.75586 15.1484 7.61914ZM18.6758 3.49023V3.14844H15.6816V3.49023H16.2422L17.9512 8.08398C18.1426 8.5944 18.3158 8.89518 18.4707 8.98633C18.571 9.04102 18.7122 9.06836 18.8945 9.06836H19.291L21.2598 3.91406C21.3509 3.66797 21.4694 3.53125 21.6152 3.50391C21.6699 3.49479 21.7246 3.49023 21.7793 3.49023C21.9342 3.49023 22.0208 3.46289 22.0391 3.4082C22.0573 3.35352 22.0664 3.26693 22.0664 3.14844H19.8926V3.49023H20.9727L19.332 7.7832L17.7461 3.49023H18.6758ZM25.5391 3.3125C26.1042 3.3125 26.4414 3.64518 26.5508 4.31055C26.5781 4.45638 26.5918 4.60677 26.5918 4.76172C26.5918 5.1901 26.4368 5.45898 26.127 5.56836C25.9264 5.62305 25.6348 5.64583 25.252 5.63672L24.1992 5.5957C24.2357 4.30143 24.5775 3.55404 25.2246 3.35352C25.334 3.32617 25.4388 3.3125 25.5391 3.3125ZM28.041 7.61914L27.7129 7.50977C27.4486 8.08398 27.0293 8.46224 26.4551 8.64453C26.2637 8.70833 26.0677 8.74023 25.8672 8.74023C24.8008 8.74023 24.2448 7.83333 24.1992 6.01953C24.1992 6.01042 24.1992 6.0013 24.1992 5.99219L25.5801 6.01953C26.9473 6.04688 27.7676 5.85091 28.041 5.43164C28.1322 5.28581 28.1777 5.11263 28.1777 4.91211C28.1777 4.19206 27.8132 3.64974 27.084 3.28516C26.6283 3.06641 26.1133 2.95703 25.5391 2.95703C24.4909 2.95703 23.6888 3.33529 23.1328 4.0918C22.7409 4.62956 22.5449 5.28125 22.5449 6.04688C22.5449 7.29557 23.0052 8.1888 23.9258 8.72656C24.418 9 24.9694 9.13672 25.5801 9.13672C26.6191 9.13672 27.3711 8.76758 27.8359 8.0293C27.918 7.89258 27.9863 7.75586 28.041 7.61914ZM32.0879 8.64453H31.3906V0.113281H28.834V0.46875H29.8867V7.87891C29.8867 8.27083 29.75 8.50781 29.4766 8.58984C29.3398 8.6263 29.1257 8.64453 28.834 8.64453V9H32.4297C32.4297 8.79948 32.3704 8.68555 32.252 8.6582C32.1973 8.64909 32.1426 8.64453 32.0879 8.64453ZM34.8223 6.04688C34.8223 4.66146 35.0684 3.80924 35.5605 3.49023C35.7611 3.37174 35.9935 3.3125 36.2578 3.3125C36.9505 3.3125 37.388 3.70443 37.5703 4.48828C37.6615 4.87109 37.707 5.3724 37.707 5.99219C37.707 7.45964 37.429 8.34375 36.873 8.64453C36.6908 8.73568 36.4857 8.78125 36.2578 8.78125C35.5742 8.78125 35.1413 8.38932 34.959 7.60547C34.8678 7.21354 34.8223 6.69401 34.8223 6.04688ZM36.3125 2.95703C35.2734 2.95703 34.4531 3.3125 33.8516 4.02344C33.3958 4.57031 33.168 5.22656 33.168 5.99219C33.168 7.04948 33.5417 7.87891 34.2891 8.48047C34.8359 8.91797 35.4785 9.13672 36.2168 9.13672C37.2285 9.13672 38.0352 8.77214 38.6367 8.04297C39.1107 7.46875 39.3477 6.78516 39.3477 5.99219C39.3477 4.92578 38.9648 4.11003 38.1992 3.54492C37.6706 3.15299 37.0417 2.95703 36.3125 2.95703ZM42.4648 11.2422V8.48047C42.8477 8.90885 43.4036 9.1276 44.1328 9.13672C44.9987 9.13672 45.7051 8.80404 46.252 8.13867C46.735 7.54622 46.9766 6.79883 46.9766 5.89648C46.9766 4.78451 46.653 3.96419 46.0059 3.43555C45.6139 3.11654 45.1628 2.95703 44.6523 2.95703C43.8958 2.95703 43.2897 3.23958 42.834 3.80469C42.6608 4.02344 42.5286 4.26042 42.4375 4.51562L42.3691 3.14844H40.0996V3.49023H40.9609V10.5039C40.9609 10.8867 40.8333 11.1146 40.5781 11.1875C40.4596 11.224 40.3001 11.2422 40.0996 11.2422V11.5977H43.5859C43.5859 11.3971 43.5267 11.2832 43.4082 11.2559C43.3535 11.2467 43.2988 11.2422 43.2441 11.2422H42.4648ZM44.0234 3.58594C44.8893 3.60417 45.3268 4.43359 45.3359 6.07422C45.3359 7.63281 44.9668 8.52148 44.2285 8.74023C44.1283 8.76758 44.0189 8.78125 43.9004 8.78125C43.3444 8.78125 42.9388 8.45768 42.6836 7.81055C42.5286 7.40039 42.4512 6.9082 42.4512 6.33398C42.4512 5.17643 42.7155 4.36068 43.2441 3.88672C43.4811 3.6862 43.7409 3.58594 44.0234 3.58594ZM50.8594 3.3125C51.4245 3.3125 51.7617 3.64518 51.8711 4.31055C51.8984 4.45638 51.9121 4.60677 51.9121 4.76172C51.9121 5.1901 51.7572 5.45898 51.4473 5.56836C51.2467 5.62305 50.9551 5.64583 50.5723 5.63672L49.5195 5.5957C49.556 4.30143 49.8978 3.55404 50.5449 3.35352C50.6543 3.32617 50.7591 3.3125 50.8594 3.3125ZM53.3613 7.61914L53.0332 7.50977C52.7689 8.08398 52.3496 8.46224 51.7754 8.64453C51.584 8.70833 51.388 8.74023 51.1875 8.74023C50.1211 8.74023 49.5651 7.83333 49.5195 6.01953C49.5195 6.01042 49.5195 6.0013 49.5195 5.99219L50.9004 6.01953C52.2676 6.04688 53.0879 5.85091 53.3613 5.43164C53.4525 5.28581 53.498 5.11263 53.498 4.91211C53.498 4.19206 53.1335 3.64974 52.4043 3.28516C51.9486 3.06641 51.4336 2.95703 50.8594 2.95703C49.8112 2.95703 49.0091 3.33529 48.4531 4.0918C48.0612 4.62956 47.8652 5.28125 47.8652 6.04688C47.8652 7.29557 48.3255 8.1888 49.2461 8.72656C49.7383 9 50.2897 9.13672 50.9004 9.13672C51.9395 9.13672 52.6914 8.76758 53.1562 8.0293C53.2383 7.89258 53.3066 7.75586 53.3613 7.61914ZM59.0352 9H61.332C61.332 8.79948 61.2773 8.68555 61.168 8.6582C61.1224 8.64909 61.0632 8.64453 60.9902 8.64453H60.3477V0.113281H57.5723V0.46875H58.8301V3.59961C58.3652 3.17122 57.7956 2.95703 57.1211 2.95703C56.2188 2.95703 55.4987 3.32161 54.9609 4.05078C54.5326 4.64323 54.3184 5.35872 54.3184 6.19727C54.3184 7.32747 54.6875 8.16146 55.4258 8.69922C55.8359 8.99089 56.2917 9.13672 56.793 9.13672C57.6862 9.13672 58.3424 8.72656 58.7617 7.90625C58.8073 7.82422 58.8438 7.74674 58.8711 7.67383L59.0352 9ZM55.9727 6.0332C55.9727 4.7207 56.2734 3.88672 56.875 3.53125C57.0664 3.42188 57.2669 3.36719 57.4766 3.36719C58.1055 3.36719 58.5247 3.7819 58.7344 4.61133C58.8164 4.94857 58.8574 5.33594 58.8574 5.77344C58.8574 7.04948 58.5749 7.89714 58.0098 8.31641C57.8092 8.46224 57.5859 8.53516 57.3398 8.53516C56.6654 8.53516 56.237 8.04297 56.0547 7.05859C56 6.7487 55.9727 6.4069 55.9727 6.0332ZM68.5508 9.13672C69.4076 9.13672 70.1048 8.81315 70.6426 8.16602C71.1348 7.57357 71.3809 6.82617 71.3809 5.92383C71.3809 4.79362 71.0436 3.95964 70.3691 3.42188C69.9772 3.11198 69.526 2.95703 69.0156 2.95703C68.0495 2.95703 67.3431 3.42188 66.8965 4.35156C66.8874 4.36979 66.8783 4.38802 66.8691 4.40625V0.113281H64.5039V0.46875H65.3516V7.89258C65.3516 8.29362 65.2148 8.5306 64.9414 8.60352C64.8229 8.63086 64.6771 8.64453 64.5039 8.64453V9H66.4727L66.5957 8.05664C67.0423 8.76758 67.694 9.1276 68.5508 9.13672ZM68.4277 3.58594C69.248 3.58594 69.6855 4.3151 69.7402 5.77344C69.7402 5.8737 69.7402 5.97396 69.7402 6.07422C69.7402 7.58724 69.3893 8.4668 68.6875 8.71289C68.5599 8.75846 68.4323 8.78125 68.3047 8.78125C67.6758 8.78125 67.2474 8.39388 67.0195 7.61914C66.9102 7.25456 66.8555 6.82617 66.8555 6.33398C66.8555 5.1582 67.1198 4.34245 67.6484 3.88672C67.8854 3.6862 68.1452 3.58594 68.4277 3.58594ZM73.4727 11.1875C73.3177 11.1875 73.1947 11.069 73.1035 10.832C72.985 10.5221 72.8757 10.3307 72.7754 10.2578C72.6751 10.1849 72.5521 10.1484 72.4062 10.1484C72.0964 10.1484 71.9004 10.2806 71.8184 10.5449C71.8001 10.6087 71.791 10.668 71.791 10.7227C71.791 11.0417 71.9824 11.2923 72.3652 11.4746C72.6022 11.584 72.862 11.6387 73.1445 11.6387C73.8919 11.6387 74.5254 11.1966 75.0449 10.3125C75.2454 9.98438 75.4368 9.58789 75.6191 9.12305L77.6562 3.91406C77.7565 3.66797 77.8704 3.53125 77.998 3.50391C78.0345 3.49479 78.0755 3.49023 78.1211 3.49023C78.3125 3.49023 78.4219 3.43099 78.4492 3.3125C78.4583 3.26693 78.4629 3.21224 78.4629 3.14844H76.3574V3.49023H77.3828L75.7969 7.48242L74.0879 3.49023H74.9492V3.14844H71.9004V3.49023H72.5156L75.1133 9.19141C74.6484 10.3216 74.2018 10.9688 73.7734 11.1328C73.6732 11.1693 73.5729 11.1875 73.4727 11.1875ZM87.3906 1.16602H88.5117V6.7168L83.5625 0.796875H81.3887V1.16602H82.4824V8.63086H81.3887V9H84.2051C84.1504 8.77214 84.0273 8.64909 83.8359 8.63086H83.043V2.73828L88.3477 9.06836L89.0723 8.93164V1.16602H90.166V0.796875H87.3906V1.16602ZM91.916 11.1875C91.7611 11.1875 91.638 11.069 91.5469 10.832C91.4284 10.5221 91.319 10.3307 91.2188 10.2578C91.1185 10.1849 90.9954 10.1484 90.8496 10.1484C90.5397 10.1484 90.3438 10.2806 90.2617 10.5449C90.2435 10.6087 90.2344 10.668 90.2344 10.7227C90.2344 11.0417 90.4258 11.2923 90.8086 11.4746C91.0456 11.584 91.3053 11.6387 91.5879 11.6387C92.3353 11.6387 92.9688 11.1966 93.4883 10.3125C93.6888 9.98438 93.8802 9.58789 94.0625 9.12305L96.0996 3.91406C96.1999 3.66797 96.3138 3.53125 96.4414 3.50391C96.4779 3.49479 96.5189 3.49023 96.5645 3.49023C96.7559 3.49023 96.8652 3.43099 96.8926 3.3125C96.9017 3.26693 96.9062 3.21224 96.9062 3.14844H94.8008V3.49023H95.8262L94.2402 7.48242L92.5312 3.49023H93.3926V3.14844H90.3438V3.49023H90.959L93.5566 9.19141C93.0918 10.3216 92.6452 10.9688 92.2168 11.1328C92.1165 11.1693 92.0163 11.1875 91.916 11.1875ZM97.3848 6.08789C97.3848 7.33659 97.8542 8.2207 98.793 8.74023C99.276 9.00456 99.832 9.13672 100.461 9.13672C101.409 9.13672 102.133 8.83594 102.635 8.23438C102.79 8.05208 102.908 7.85156 102.99 7.63281L102.635 7.53711C102.352 8.13867 101.878 8.51693 101.213 8.67188C101.04 8.71745 100.857 8.74023 100.666 8.74023C99.5905 8.72201 99.0482 7.83789 99.0391 6.08789C99.0391 4.41992 99.4082 3.49935 100.146 3.32617C100.256 3.30794 100.361 3.29883 100.461 3.29883C100.889 3.29883 101.154 3.48568 101.254 3.85938C101.272 3.94141 101.29 4.06445 101.309 4.22852C101.372 4.62956 101.482 4.88477 101.637 4.99414C101.755 5.06706 101.906 5.10807 102.088 5.11719C102.498 5.11719 102.753 4.95768 102.854 4.63867C102.872 4.56576 102.881 4.4974 102.881 4.43359C102.881 4.02344 102.63 3.66797 102.129 3.36719C101.664 3.09375 101.108 2.95703 100.461 2.95703C99.4401 2.95703 98.6426 3.3125 98.0684 4.02344C97.6126 4.57943 97.3848 5.26758 97.3848 6.08789ZM103.291 3.54492H104.234V7.09961C104.316 8.42122 104.932 9.10482 106.08 9.15039C106.8 9.15039 107.288 8.86328 107.543 8.28906C107.634 8.08854 107.707 7.84701 107.762 7.56445L107.393 7.50977C107.192 8.32096 106.868 8.73112 106.422 8.74023C106.039 8.74023 105.816 8.48047 105.752 7.96094C105.743 7.86979 105.738 7.77865 105.738 7.6875V3.54492H107.652V3.18945H105.738V1.60352L104.234 1.89062V3.18945H103.291V3.54492ZM109.936 6.04688C109.936 4.66146 110.182 3.80924 110.674 3.49023C110.874 3.37174 111.107 3.3125 111.371 3.3125C112.064 3.3125 112.501 3.70443 112.684 4.48828C112.775 4.87109 112.82 5.3724 112.82 5.99219C112.82 7.45964 112.542 8.34375 111.986 8.64453C111.804 8.73568 111.599 8.78125 111.371 8.78125C110.688 8.78125 110.255 8.38932 110.072 7.60547C109.981 7.21354 109.936 6.69401 109.936 6.04688ZM111.426 2.95703C110.387 2.95703 109.566 3.3125 108.965 4.02344C108.509 4.57031 108.281 5.22656 108.281 5.99219C108.281 7.04948 108.655 7.87891 109.402 8.48047C109.949 8.91797 110.592 9.13672 111.33 9.13672C112.342 9.13672 113.148 8.77214 113.75 8.04297C114.224 7.46875 114.461 6.78516 114.461 5.99219C114.461 4.92578 114.078 4.11003 113.312 3.54492C112.784 3.15299 112.155 2.95703 111.426 2.95703ZM119.219 9.13672C120.076 9.13672 120.773 8.81315 121.311 8.16602C121.803 7.57357 122.049 6.82617 122.049 5.92383C122.049 4.79362 121.712 3.95964 121.037 3.42188C120.645 3.11198 120.194 2.95703 119.684 2.95703C118.717 2.95703 118.011 3.42188 117.564 4.35156C117.555 4.36979 117.546 4.38802 117.537 4.40625V0.113281H115.172V0.46875H116.02V7.89258C116.02 8.29362 115.883 8.5306 115.609 8.60352C115.491 8.63086 115.345 8.64453 115.172 8.64453V9H117.141L117.264 8.05664C117.71 8.76758 118.362 9.1276 119.219 9.13672ZM119.096 3.58594C119.916 3.58594 120.354 4.3151 120.408 5.77344C120.408 5.8737 120.408 5.97396 120.408 6.07422C120.408 7.58724 120.057 8.4668 119.355 8.71289C119.228 8.75846 119.1 8.78125 118.973 8.78125C118.344 8.78125 117.915 8.39388 117.688 7.61914C117.578 7.25456 117.523 6.82617 117.523 6.33398C117.523 5.1582 117.788 4.34245 118.316 3.88672C118.553 3.6862 118.813 3.58594 119.096 3.58594ZM125.809 8.64453H125.248V3.14844H122.855V3.49023H123.744V7.90625C123.744 8.29818 123.594 8.5306 123.293 8.60352C123.184 8.63086 123.038 8.64453 122.855 8.64453V9H126.137C126.137 8.79036 126.068 8.67643 125.932 8.6582C125.895 8.64909 125.854 8.64453 125.809 8.64453ZM125.385 1.28906C125.385 0.915365 125.216 0.63737 124.879 0.455078C124.742 0.382161 124.601 0.345703 124.455 0.345703C124.081 0.345703 123.808 0.514323 123.635 0.851562C123.562 0.997396 123.525 1.14323 123.525 1.28906C123.525 1.67188 123.694 1.94531 124.031 2.10938C124.168 2.17318 124.309 2.20508 124.455 2.20508C124.829 2.20508 125.102 2.04557 125.275 1.72656C125.348 1.58984 125.385 1.44401 125.385 1.28906ZM126.697 3.54492H127.641V7.09961C127.723 8.42122 128.338 9.10482 129.486 9.15039C130.206 9.15039 130.694 8.86328 130.949 8.28906C131.04 8.08854 131.113 7.84701 131.168 7.56445L130.799 7.50977C130.598 8.32096 130.275 8.73112 129.828 8.74023C129.445 8.74023 129.222 8.48047 129.158 7.96094C129.149 7.86979 129.145 7.77865 129.145 7.6875V3.54492H131.059V3.18945H129.145V1.60352L127.641 1.89062V3.18945H126.697V3.54492ZM133.889 8.75391C134.499 8.75391 134.878 8.54883 135.023 8.13867C135.051 8.04753 135.064 7.95638 135.064 7.86523C135.064 7.42773 134.777 7.05859 134.203 6.75781C134.076 6.69401 133.875 6.60286 133.602 6.48438C132.9 6.17448 132.43 5.89193 132.193 5.63672C131.947 5.34505 131.824 5.00781 131.824 4.625C131.824 3.90495 132.216 3.4082 133 3.13477C133.346 3.01628 133.734 2.95703 134.162 2.95703C134.827 2.95703 135.374 3.08464 135.803 3.33984C135.803 3.06641 135.876 2.91602 136.021 2.88867C136.067 2.87956 136.113 2.875 136.158 2.875V4.58398H135.748C135.712 3.75456 135.256 3.33529 134.381 3.32617C133.77 3.32617 133.392 3.51758 133.246 3.90039C133.21 4.00065 133.191 4.10091 133.191 4.20117C133.191 4.58398 133.465 4.91667 134.012 5.19922C134.13 5.25391 134.322 5.34049 134.586 5.45898C135.306 5.76888 135.785 6.05599 136.021 6.32031C136.295 6.63021 136.432 6.99479 136.432 7.41406C136.432 8.1888 136.031 8.70833 135.229 8.97266C134.9 9.08203 134.536 9.13672 134.135 9.13672C133.369 9.13672 132.727 8.98633 132.207 8.68555C132.207 8.92253 132.148 9.05924 132.029 9.0957C131.975 9.10482 131.911 9.10938 131.838 9.10938V7.03125H132.275C132.294 8.17057 132.831 8.74479 133.889 8.75391Z" fill="#656565"/>
</svg>
