<?xml version="1.0" encoding="UTF-8" standalone="no"?>
<!-- Created with Inkscape (http://www.inkscape.org/) -->

<svg
   xmlns:dc="http://purl.org/dc/elements/1.1/"
   xmlns:cc="http://creativecommons.org/ns#"
   xmlns:rdf="http://www.w3.org/1999/02/22-rdf-syntax-ns#"
   xmlns:svg="http://www.w3.org/2000/svg"
   xmlns="http://www.w3.org/2000/svg"
   xmlns:sodipodi="http://sodipodi.sourceforge.net/DTD/sodipodi-0.dtd"
   xmlns:inkscape="http://www.inkscape.org/namespaces/inkscape"
   width="21.378996mm"
   height="24.367376mm"
   viewBox="0 0 21.378996 24.367376"
   version="1.1"
   id="svg292"
   inkscape:version="0.92.3 (2405546, 2018-03-11)"
   sodipodi:docname="especialista.svg">
  <defs
     id="defs286">
    <clipPath
       id="clip1">
      <rect
         style="fill:#ffffff"
         y="0"
         x="0"
         width="68"
         height="110.901"
         transform="translate(175,32)"
         id="rect254" />
    </clipPath>
    <linearGradient
       id="paint1_linear"
       x1="195.599"
       y1="66.098701"
       x2="222.34"
       y2="66.098701"
       gradientUnits="userSpaceOnUse">
      <stop
         offset="2.66389e-07"
         stop-color="#00F3CA"
         id="stop171" />
      <stop
         offset="1"
         stop-color="#24A6E2"
         id="stop173" />
    </linearGradient>
    <linearGradient
       id="paint2_linear"
       x1="176.007"
       y1="77.558601"
       x2="244.457"
       y2="77.558601"
       gradientUnits="userSpaceOnUse">
      <stop
         offset="2.66389e-07"
         stop-color="#00F3CA"
         id="stop176" />
      <stop
         offset="1"
         stop-color="#24A6E2"
         id="stop178" />
    </linearGradient>
    <linearGradient
       id="paint3_linear"
       x1="175"
       y1="122.595"
       x2="243"
       y2="122.595"
       gradientUnits="userSpaceOnUse">
      <stop
         offset="2.66389e-07"
         stop-color="#00F3CA"
         id="stop181" />
      <stop
         offset="1"
         stop-color="#24A6E2"
         id="stop183" />
    </linearGradient>
  </defs>
  <sodipodi:namedview
     id="base"
     pagecolor="#ffffff"
     bordercolor="#666666"
     borderopacity="1.0"
     inkscape:pageopacity="0.0"
     inkscape:pageshadow="2"
     inkscape:zoom="2.8"
     inkscape:cx="56.128455"
     inkscape:cy="36.212367"
     inkscape:document-units="mm"
     inkscape:current-layer="layer1"
     showgrid="false"
     inkscape:window-width="1366"
     inkscape:window-height="728"
     inkscape:window-x="1600"
     inkscape:window-y="0"
     inkscape:window-maximized="1" />
  <metadata
     id="metadata289">
    <rdf:RDF>
      <cc:Work
         rdf:about="">
        <dc:format>image/svg+xml</dc:format>
        <dc:type
           rdf:resource="http://purl.org/dc/dcmitype/StillImage" />
        <dc:title></dc:title>
      </cc:Work>
    </rdf:RDF>
  </metadata>
  <g
     inkscape:label="Capa 1"
     inkscape:groupmode="layer"
     id="layer1"
     transform="translate(-95.975384,-120.98521)">
    <g
       id="Group_9"
       transform="matrix(0.26458333,0,0,0.26458333,49.408719,-26.387661)">
      <g
         id="Group_10">
        <path
           id="Vector_16"
           d="m 243.698,633.516 c -0.645,-0.235 -1.232,-0.647 -1.643,-1.117 -0.47,0.823 -1.057,1.645 -1.702,2.468 -0.587,0.705 -1.174,1.41 -1.82,2.056 -2.172,2.115 -4.813,3.819 -7.689,4.876 -2.759,0.999 -5.811,1.528 -9.157,1.586 -2.465,0.059 -4.93,-0.352 -7.278,-1.175 -0.528,-0.176 -1.056,-0.411 -1.585,-0.646 -0.411,-0.176 -0.821,-0.411 -1.291,-0.646 1.526,-1.821 2.935,-3.877 4.285,-6.286 1.585,-2.82 2.935,-5.816 4.226,-9.282 0.587,-1.528 1.115,-3.173 1.585,-4.818 0.234,-0.822 0.469,-1.645 0.704,-2.467 l 0.293,-1.234 0.235,-1.057 0.118,-0.47 -0.294,-0.47 c -0.176,-0.294 -0.469,-0.47 -0.88,-0.705 h -0.118 l -0.997,-0.177 h -0.118 c -0.352,0 -0.704,0.059 -0.998,0.235 -0.117,0.059 -0.352,0.235 -0.469,0.47 -0.059,0.118 -0.176,0.294 -0.176,0.47 l -0.176,0.882 -0.294,1.175 c -0.176,0.763 -0.411,1.527 -0.646,2.291 -0.469,1.527 -0.939,3.113 -1.526,4.582 -1.174,3.231 -2.465,6.11 -3.932,8.754 -1.35,2.408 -2.7,4.406 -4.168,6.109 -0.997,-0.763 -1.937,-1.527 -2.934,-2.467 -2.407,-2.291 -4.52,-4.759 -6.398,-7.167 l -1.057,-1.293 c -0.704,-0.881 -1.35,-1.703 -2.054,-2.585 -1.115,-1.351 -2.231,-2.643 -3.581,-3.818 -0.587,-0.529 -1.467,-1.175 -2.523,-1.645 -0.177,-0.059 -0.294,-0.118 -0.47,-0.176 -0.939,-0.353 -1.996,-0.412 -2.994,-0.294 -1.819,0.294 -3.58,1.175 -5.341,2.761 -2.817,2.644 -4.578,6.286 -4.813,9.987 -0.117,1.939 0.235,3.936 0.998,5.699 0.704,1.703 1.82,3.29 3.287,4.641 2.289,2.174 5.165,3.877 9.098,5.229 l 0.293,0.117 c 2.583,0.881 6.515,1.762 10.683,0.705 3.052,-0.705 6.045,-2.409 8.687,-4.876 0.763,0.47 1.585,0.822 2.406,1.175 0.529,0.235 1.057,0.47 1.644,0.646 2.817,0.999 5.811,1.469 8.745,1.351 3.698,-0.058 7.161,-0.705 10.213,-1.938 4.52,-1.704 8.453,-4.7 11.211,-8.578 0.646,-0.881 1.233,-1.762 1.703,-2.702 -0.47,0.059 -0.881,0 -1.292,-0.176 z m -44.374,11.162 c -2.582,0.646 -5.517,0.411 -8.628,-0.646 l -0.235,-0.059 c -3.287,-1.175 -5.752,-2.585 -7.571,-4.348 -1.057,-0.998 -1.879,-2.173 -2.407,-3.348 -0.528,-1.234 -0.763,-2.585 -0.704,-3.936 0.176,-2.703 1.467,-5.464 3.58,-7.403 0.763,-0.705 1.937,-1.645 3.287,-1.821 0.411,-0.059 0.822,-0.059 1.174,0.118 0.059,0 0.117,0.058 0.176,0.058 0.47,0.177 0.998,0.529 1.585,1.058 1.115,0.999 2.172,2.232 3.169,3.349 0.705,0.822 1.35,1.645 1.996,2.467 l 1.115,1.351 c 1.996,2.468 4.226,5.111 6.809,7.52 0.939,0.881 1.878,1.645 2.817,2.35 -1.878,1.704 -4.05,2.82 -6.163,3.29 z"
           inkscape:connector-curvature="0"
           style="fill:#00baba" />
        <path
           id="Vector_17"
           d="m 219.868,604.376 c -1.82,-0.646 -3.581,-1.938 -5.107,-3.642 -1.585,-1.821 -2.817,-4.23 -3.522,-6.815 -1.056,-4.171 -1.056,-8.753 -0.058,-14.452 0.411,-2.232 0.939,-4.582 1.643,-6.873 0.352,-1.117 0.704,-2.233 1.115,-3.349 0.47,-1.351 0.939,-2.409 1.409,-3.349 1.291,-2.643 2.876,-4.582 4.754,-5.933 2.407,-1.645 5.342,-2.174 7.924,-1.41 l 1.233,0.352 -1.115,2.996 -1.116,-0.352 c -0.763,-0.235 -1.702,-0.294 -2.641,-0.118 -0.88,0.177 -1.702,0.529 -2.524,1.058 -1.408,0.999 -2.7,2.585 -3.756,4.758 -0.939,1.88 -1.526,3.937 -2.231,6.228 -0.645,2.232 -1.115,4.406 -1.408,6.521 -0.763,5.17 -0.705,9.4 0.293,12.925 0.587,2.173 1.526,3.936 2.759,5.346 1.174,1.351 2.7,2.291 4.402,3.231 l 1.467,0.881 -0.939,2.585 -0.998,-0.176 c -0.528,-0.059 -1.056,-0.235 -1.584,-0.412 z"
           inkscape:connector-curvature="0"
           style="fill:#00baba" />
        <path
           id="Vector_18"
           d="m 228.496,607.373 c -0.469,-0.177 -0.88,-0.353 -1.35,-0.588 l -0.939,-0.47 0.939,-2.644 0.998,0.177 c 2.113,0.411 4.167,0.763 6.104,0.411 1.879,-0.294 3.698,-1.116 5.518,-2.409 2.993,-2.173 5.752,-5.405 8.335,-9.869 1.056,-1.88 2.054,-3.878 2.993,-5.993 0.939,-2.174 1.702,-4.171 2.172,-6.227 0.528,-2.35 0.587,-4.348 0.058,-6.051 -0.293,-0.94 -0.704,-1.763 -1.291,-2.409 -0.587,-0.705 -1.35,-1.292 -2.113,-1.527 l -1.056,-0.412 0.997,-2.996 1.174,0.47 c 2.524,0.999 4.461,3.29 5.283,6.051 0.646,2.233 0.646,4.7 0,7.579 -0.235,1.057 -0.587,2.174 -1.057,3.466 -0.41,1.116 -0.821,2.174 -1.232,3.29 -0.939,2.232 -1.937,4.406 -3.052,6.403 -2.818,5.053 -5.753,8.578 -9.157,11.163 -2.172,1.586 -4.637,2.702 -6.985,3.113 -2.171,0.353 -4.402,0.177 -6.339,-0.528 z"
           inkscape:connector-curvature="0"
           style="fill:#00baba" />
        <path
           id="Vector_19"
           d="m 225.678,558.788 c 0.411,-1.175 1.174,-1.939 1.761,-1.763 l 3.229,2.174 c 0.41,0.176 0.469,0.881 0.176,1.645 l -0.235,0.705 c -0.294,0.764 -0.763,1.234 -1.115,1.116 l -3.874,-0.352 c -0.587,-0.177 -0.705,-1.293 -0.294,-2.468 z"
           inkscape:connector-curvature="0"
           style="fill:#00baba" />
        <path
           id="Vector_20"
           d="m 252.855,568.422 c 0.411,-1.175 0.293,-2.291 -0.294,-2.467 l -4.05,-0.411 c -0.352,-0.118 -0.88,0.352 -1.115,1.116 l -0.235,0.705 c -0.293,0.764 -0.176,1.469 0.177,1.586 l 3.404,2.233 c 0.587,0.235 1.409,-0.588 1.819,-1.704 z"
           inkscape:connector-curvature="0"
           style="fill:#00baba" />
        <path
           id="Vector_21"
           d="m 222.392,616.009 c -1.174,-0.059 -2.113,-0.412 -3.111,-1.117 -0.705,-0.235 -1.174,-10.104 -0.881,-12.278 0.235,-1.645 2.231,-2.35 3.816,-1.821 l 6.75,2.408 c 1.526,0.529 2.7,2.409 1.819,3.819 -1.115,1.88 -7.689,9.282 -8.393,8.989 z"
           inkscape:connector-curvature="0"
           style="fill:#00baba" />
        <path
           id="Vector_22"
           d="m 247.278,623.411 c -3.521,-1.234 -7.454,0.587 -8.686,4.171 -0.94,2.644 -0.118,5.522 1.819,7.344 0.646,0.587 1.467,1.057 2.348,1.41 0.176,0.058 0.352,0.117 0.528,0.176 3.405,0.881 6.985,-0.94 8.159,-4.289 1.232,-3.642 -0.646,-7.578 -4.168,-8.812 z m 1.409,7.755 c -0.587,1.586 -2.113,2.643 -3.698,2.585 -0.411,0 -0.88,-0.059 -1.291,-0.235 -0.646,-0.235 -1.233,-0.647 -1.643,-1.117 -0.881,-1.057 -1.233,-2.526 -0.763,-3.877 0.704,-2.056 2.934,-3.114 4.989,-2.35 2.054,0.705 3.111,2.938 2.406,4.994 z"
           inkscape:connector-curvature="0"
           style="fill:#00baba" />
      </g>
    </g>
  </g>
</svg>
