<?xml version="1.0" encoding="UTF-8" standalone="no"?>
<!-- Created with Inkscape (http://www.inkscape.org/) -->

<svg
   xmlns:dc="http://purl.org/dc/elements/1.1/"
   xmlns:cc="http://creativecommons.org/ns#"
   xmlns:rdf="http://www.w3.org/1999/02/22-rdf-syntax-ns#"
   xmlns:svg="http://www.w3.org/2000/svg"
   xmlns="http://www.w3.org/2000/svg"
   xmlns:sodipodi="http://sodipodi.sourceforge.net/DTD/sodipodi-0.dtd"
   xmlns:inkscape="http://www.inkscape.org/namespaces/inkscape"
   width="15.345839mm"
   height="19.908039mm"
   viewBox="0 0 15.345839 19.908039"
   version="1.1"
   id="svg292"
   inkscape:version="0.92.3 (2405546, 2018-03-11)"
   sodipodi:docname="historial.svg">
  <defs
     id="defs286">
    <clipPath
       id="clip1">
      <rect
         style="fill:#ffffff"
         y="0"
         x="0"
         width="68"
         height="110.901"
         transform="translate(175,32)"
         id="rect254" />
    </clipPath>
    <linearGradient
       id="paint1_linear"
       x1="195.599"
       y1="66.098701"
       x2="222.34"
       y2="66.098701"
       gradientUnits="userSpaceOnUse">
      <stop
         offset="2.66389e-07"
         stop-color="#00F3CA"
         id="stop171" />
      <stop
         offset="1"
         stop-color="#24A6E2"
         id="stop173" />
    </linearGradient>
    <linearGradient
       id="paint2_linear"
       x1="176.007"
       y1="77.558601"
       x2="244.457"
       y2="77.558601"
       gradientUnits="userSpaceOnUse">
      <stop
         offset="2.66389e-07"
         stop-color="#00F3CA"
         id="stop176" />
      <stop
         offset="1"
         stop-color="#24A6E2"
         id="stop178" />
    </linearGradient>
    <linearGradient
       id="paint3_linear"
       x1="175"
       y1="122.595"
       x2="243"
       y2="122.595"
       gradientUnits="userSpaceOnUse">
      <stop
         offset="2.66389e-07"
         stop-color="#00F3CA"
         id="stop181" />
      <stop
         offset="1"
         stop-color="#24A6E2"
         id="stop183" />
    </linearGradient>
  </defs>
  <sodipodi:namedview
     id="base"
     pagecolor="#ffffff"
     bordercolor="#666666"
     borderopacity="1.0"
     inkscape:pageopacity="0.0"
     inkscape:pageshadow="2"
     inkscape:zoom="2.8"
     inkscape:cx="43.699905"
     inkscape:cy="26.333867"
     inkscape:document-units="mm"
     inkscape:current-layer="layer1"
     showgrid="false"
     inkscape:window-width="1366"
     inkscape:window-height="728"
     inkscape:window-x="1600"
     inkscape:window-y="0"
     inkscape:window-maximized="1" />
  <metadata
     id="metadata289">
    <rdf:RDF>
      <cc:Work
         rdf:about="">
        <dc:format>image/svg+xml</dc:format>
        <dc:type
           rdf:resource="http://purl.org/dc/dcmitype/StillImage" />
        <dc:title></dc:title>
      </cc:Work>
    </rdf:RDF>
  </metadata>
  <g
     inkscape:label="Capa 1"
     inkscape:groupmode="layer"
     id="layer1"
     transform="translate(-99.263771,-122.83086)">
    <path
       inkscape:connector-curvature="0"
       style="clip-rule:evenodd;fill:#00baba;fill-rule:evenodd;stroke-width:0.26458332"
       id="icon"
       d="m 102.59461,124.09901 c 0,0.69876 -0.567,1.26841 -1.26259,1.26841 -0.69559,0 -1.26259,-0.56965 -1.26259,-1.26841 0,-0.70088 0.567,-1.26815 1.26259,-1.26815 0.69559,0 1.26259,0.56938 1.26259,1.26815 z m 2.86994,0.20875 h 6.42276 c 0.28046,0 0.50879,-0.22939 0.50879,-0.51117 v -0.0103 c 0,-0.28152 -0.22833,-0.51117 -0.50879,-0.51117 h -6.42276 c -0.28046,0 -0.50879,0.22965 -0.50879,0.51117 v 0.0103 c -0.002,0.28178 0.22621,0.51117 0.50879,0.51117 z m -0.51091,1.44754 c 0,0.28152 0.22833,0.51117 0.50853,0.51117 h 8.63864 c 0.2802,0 0.5088,-0.22965 0.5088,-0.51117 v -0.0103 c 0,-0.28178 -0.2286,-0.51117 -0.5088,-0.51117 h -8.63864 c -0.2802,0 -0.50853,0.22939 -0.50853,0.51117 z m 0.50853,2.46777 c -0.2802,0 -0.50853,-0.2294 -0.50853,-0.51118 v -0.0103 c 0,-0.28178 0.22833,-0.51117 0.50853,-0.51117 h 8.63864 c 0.2802,0 0.5088,0.22939 0.5088,0.51117 v 0.0103 c 0,0.28178 -0.2286,0.51118 -0.5088,0.51118 z m -0.50853,2.43416 c 0,0.28179 0.22833,0.51118 0.50853,0.51118 h 6.42302 c 0.2802,0 0.50853,-0.22939 0.50853,-0.51118 v -0.0103 c 0,-0.28179 -0.22833,-0.51118 -0.50853,-0.51118 h -6.42091 c -0.28019,0 -0.50879,0.22939 -0.50879,0.51118 z m 0.50853,2.46989 c -0.2802,0 -0.50853,-0.22966 -0.50853,-0.51117 l 0.002,-0.0103 c 0,-0.28178 0.2286,-0.51118 0.50879,-0.51118 h 4.63921 c 0.28019,0 0.50879,0.2294 0.50879,0.51118 v 0.0103 c 0,0.28151 -0.2286,0.51117 -0.50879,0.51117 z m -0.50853,1.44542 c 0,0.28152 0.22833,0.51117 0.50853,0.51117 h 8.63864 c 0.2802,0 0.5088,-0.22965 0.5088,-0.51117 v -0.0103 c 0,-0.28178 -0.2286,-0.51117 -0.5088,-0.51117 h -8.63864 c -0.2802,0 -0.50853,0.22939 -0.50853,0.51117 z m 0.49398,3.84651 c -0.272,0 -0.49398,-0.22119 -0.49398,-0.49636 v -0.0106 c 0,-0.27331 0.22013,-0.49636 0.49398,-0.49636 h 8.38729 c 0.27199,0 0.49424,0.22093 0.49424,0.49636 v 0.0106 c 0,0.27305 -0.22013,0.49636 -0.49424,0.49636 z m -0.49398,1.40573 c 0,0.27543 0.22198,0.49663 0.49398,0.49663 h 7.27445 c 0.27411,0 0.49424,-0.22331 0.49424,-0.49663 v -0.0103 c 0,-0.27543 -0.22225,-0.49635 -0.49424,-0.49635 h -7.27445 c -0.27385,0 -0.49398,0.22304 -0.49398,0.49635 z m 0.49398,2.39686 c -0.272,0 -0.49398,-0.22119 -0.49398,-0.49636 v -0.0106 c 0,-0.27305 0.22013,-0.49636 0.49398,-0.49636 h 3.32052 c 0.27199,0 0.49424,0.22119 0.49424,0.49636 v 0.0106 c 0,0.27332 -0.22014,0.49636 -0.49424,0.49636 z m -6.177499,-16.16816 v 2.61594 h 4.124059 v -2.61594 c 0,-0.21669 -0.18891,-0.39422 -0.42148,-0.39422 h -0.46937 c -0.0831,0 -0.16007,0.0376 -0.2077,0.10027 l -0.69162,0.91149 -0.16801,-0.32967 0.26776,-0.52758 c 0.0373,-0.073 -0.0185,-0.15637 -0.10583,-0.15637 h -0.5379 c -0.0852,0 -0.14129,0.0833 -0.10583,0.15637 l 0.26776,0.52758 -0.16616,0.32544 -0.6686,-0.90514 c -0.0476,-0.0648 -0.12648,-0.10239 -0.20955,-0.10239 h -0.492389 c -0.22622,0 -0.41514,0.17541 -0.41514,0.39422 z m 0,9.47659 h 4.124059 v -2.61594 c 0,-0.21696 -0.18917,-0.39423 -0.42174,-0.39423 h -0.46911 c -0.0831,0 -0.16007,0.0376 -0.2077,0.10028 l -0.69162,0.91149 -0.16827,-0.32967 0.26802,-0.52758 c 0.0373,-0.073 -0.0188,-0.15664 -0.10583,-0.15664 h -0.5379 c -0.0852,0 -0.14129,0.0836 -0.10583,0.15664 l 0.26776,0.52758 -0.16616,0.32543 -0.6686,-0.90513 c -0.0479,-0.0648 -0.12674,-0.1024 -0.20982,-0.1024 h -0.492119 c -0.23257,0 -0.42149,0.17727 -0.42149,0.39423 z m 2.061899,-3.302 c -0.69559,0 -1.26259,-0.56965 -1.26259,-1.26842 0,-0.70088 0.567,-1.26814 1.26259,-1.26814 0.69559,0 1.26259,0.56938 1.26259,1.26814 0,0.69877 -0.567,1.26842 -1.26259,1.26842 z m 2.06216,7.89516 c 0,-0.21696 -0.18917,-0.39423 -0.42174,-0.39423 h -0.46911 c -0.0831,0 -0.16007,0.0376 -0.2077,0.10002 l -0.69162,0.91175 -0.16827,-0.32967 0.26802,-0.52784 c 0.0373,-0.073 -0.0188,-0.15637 -0.10583,-0.15637 h -0.5379 c -0.0852,0 -0.14129,0.0833 -0.10583,0.15637 l 0.26776,0.52784 -0.16616,0.32544 -0.6686,-0.90541 c -0.0479,-0.0646 -0.12674,-0.10213 -0.20982,-0.10213 h -0.492119 c -0.23257,0 -0.42149,0.17727 -0.42149,0.39423 v 2.61567 h 4.124059 z m -2.06216,-0.68633 c -0.69559,0 -1.26259,-0.56938 -1.26259,-1.26814 0,-0.70089 0.567,-1.26842 1.26259,-1.26842 0.69559,0 1.26259,0.56965 1.26259,1.26842 0,0.69876 -0.567,1.26814 -1.26259,1.26814 z" />
  </g>
</svg>
