<svg width="52" height="52" viewBox="0 0 52 52" fill="none" xmlns="http://www.w3.org/2000/svg">
<g filter="url(#filter0_d)">
<path fill-rule="evenodd" clip-rule="evenodd" d="M26 46C37.0457 46 46 37.0457 46 26C46 14.9543 37.0457 6 26 6C14.9543 6 6 14.9543 6 26C6 37.0457 14.9543 46 26 46Z" fill="white"/>
</g>
<path d="M29.5714 26.1429C29.5714 27.8739 28.1596 29.2857 26.4286 29.2857C24.6975 29.2857 23.2857 27.8739 23.2857 26.1429C23.2857 24.4118 24.6975 23 26.4286 23C28.1596 23 29.5714 24.4118 29.5714 26.1429ZM31.2656 26.1429C31.2656 23.4665 29.1049 21.3058 26.4286 21.3058C23.7522 21.3058 21.5915 23.4665 21.5915 26.1429C21.5915 28.8192 23.7522 30.9799 26.4286 30.9799C29.1049 30.9799 31.2656 28.8192 31.2656 26.1429ZM32.5915 21.1094C32.5915 20.4833 32.0882 19.9799 31.4621 19.9799C30.8359 19.9799 30.3326 20.4833 30.3326 21.1094C30.3326 21.7355 30.8359 22.2388 31.4621 22.2388C32.0882 22.2388 32.5915 21.7355 32.5915 21.1094ZM26.4286 18.4085C27.8036 18.4085 30.75 18.298 31.99 18.7891C32.4196 18.9609 32.7388 19.1696 33.0703 19.5011C33.4018 19.8326 33.6105 20.1518 33.7824 20.5815C34.2734 21.8214 34.1629 24.7679 34.1629 26.1429C34.1629 27.5179 34.2734 30.4643 33.7824 31.7042C33.6105 32.1339 33.4018 32.4531 33.0703 32.7846C32.7388 33.1161 32.4196 33.3248 31.99 33.4967C30.75 33.9877 27.8036 33.8772 26.4286 33.8772C25.0536 33.8772 22.1071 33.9877 20.8672 33.4967C20.4375 33.3248 20.1183 33.1161 19.7868 32.7846C19.4554 32.4531 19.2467 32.1339 19.0748 31.7042C18.5837 30.4643 18.6942 27.5179 18.6942 26.1429C18.6942 24.7679 18.5837 21.8214 19.0748 20.5815C19.2467 20.1518 19.4554 19.8326 19.7868 19.5011C20.1183 19.1696 20.4375 18.9609 20.8672 18.7891C22.1071 18.298 25.0536 18.4085 26.4286 18.4085ZM35.8571 26.1429C35.8571 24.8415 35.8694 23.5525 35.7958 22.2511C35.7221 20.7411 35.3783 19.4029 34.2734 18.298C33.1685 17.1931 31.8304 16.8493 30.3203 16.7757C29.019 16.702 27.7299 16.7143 26.4286 16.7143C25.1272 16.7143 23.8382 16.702 22.5368 16.7757C21.0268 16.8493 19.6886 17.1931 18.5837 18.298C17.4788 19.4029 17.135 20.7411 17.0614 22.2511C16.9877 23.5525 17 24.8415 17 26.1429C17 27.4442 16.9877 28.7333 17.0614 30.0346C17.135 31.5446 17.4788 32.8828 18.5837 33.9877C19.6886 35.0926 21.0268 35.4364 22.5368 35.51C23.8382 35.5837 25.1272 35.5714 26.4286 35.5714C27.7299 35.5714 29.019 35.5837 30.3203 35.51C31.8304 35.4364 33.1685 35.0926 34.2734 33.9877C35.3783 32.8828 35.7221 31.5446 35.7958 30.0346C35.8694 28.7333 35.8571 27.4442 35.8571 26.1429Z" fill="#656565"/>
<defs>
<filter id="filter0_d" x="0" y="0" width="52" height="52" filterUnits="userSpaceOnUse" color-interpolation-filters="sRGB">
<feFlood flood-opacity="0" result="BackgroundImageFix"/>
<feColorMatrix in="SourceAlpha" type="matrix" values="0 0 0 0 0 0 0 0 0 0 0 0 0 0 0 0 0 0 127 0"/>
<feOffset/>
<feGaussianBlur stdDeviation="3"/>
<feColorMatrix type="matrix" values="0 0 0 0 0 0 0 0 0 0 0 0 0 0 0 0 0 0 0.1 0"/>
<feBlend mode="normal" in2="BackgroundImageFix" result="effect1_dropShadow"/>
<feBlend mode="normal" in="SourceGraphic" in2="effect1_dropShadow" result="shape"/>
</filter>
</defs>
</svg>
