<?xml version="1.0" encoding="UTF-8" standalone="no"?>
<!-- Created with Inkscape (http://www.inkscape.org/) -->

<svg
   xmlns:dc="http://purl.org/dc/elements/1.1/"
   xmlns:cc="http://creativecommons.org/ns#"
   xmlns:rdf="http://www.w3.org/1999/02/22-rdf-syntax-ns#"
   xmlns:svg="http://www.w3.org/2000/svg"
   xmlns="http://www.w3.org/2000/svg"
   xmlns:sodipodi="http://sodipodi.sourceforge.net/DTD/sodipodi-0.dtd"
   xmlns:inkscape="http://www.inkscape.org/namespaces/inkscape"
   width="17.991667mm"
   height="29.336311mm"
   viewBox="0 0 17.991667 29.336311"
   version="1.1"
   id="svg292"
   inkscape:version="0.92.3 (2405546, 2018-03-11)"
   sodipodi:docname="logo.svg">
  <defs
     id="defs286">
    <clipPath
       id="clip1">
      <rect
         style="fill:#ffffff"
         y="0"
         x="0"
         width="68"
         height="110.901"
         transform="translate(175,32)"
         id="rect254" />
    </clipPath>
    <linearGradient
       id="paint1_linear"
       x1="195.599"
       y1="66.098701"
       x2="222.34"
       y2="66.098701"
       gradientUnits="userSpaceOnUse">
      <stop
         offset="2.66389e-07"
         stop-color="#00F3CA"
         id="stop171" />
      <stop
         offset="1"
         stop-color="#24A6E2"
         id="stop173" />
    </linearGradient>
    <linearGradient
       id="paint2_linear"
       x1="176.007"
       y1="77.558601"
       x2="244.457"
       y2="77.558601"
       gradientUnits="userSpaceOnUse">
      <stop
         offset="2.66389e-07"
         stop-color="#00F3CA"
         id="stop176" />
      <stop
         offset="1"
         stop-color="#24A6E2"
         id="stop178" />
    </linearGradient>
    <linearGradient
       id="paint3_linear"
       x1="175"
       y1="122.595"
       x2="243"
       y2="122.595"
       gradientUnits="userSpaceOnUse">
      <stop
         offset="2.66389e-07"
         stop-color="#00F3CA"
         id="stop181" />
      <stop
         offset="1"
         stop-color="#24A6E2"
         id="stop183" />
    </linearGradient>
  </defs>
  <sodipodi:namedview
     id="base"
     pagecolor="#ffffff"
     bordercolor="#666666"
     borderopacity="1.0"
     inkscape:pageopacity="0.0"
     inkscape:pageshadow="2"
     inkscape:zoom="2.8"
     inkscape:cx="41.44149"
     inkscape:cy="50.520926"
     inkscape:document-units="mm"
     inkscape:current-layer="layer1"
     showgrid="false"
     inkscape:window-width="1366"
     inkscape:window-height="728"
     inkscape:window-x="1600"
     inkscape:window-y="0"
     inkscape:window-maximized="1" />
  <metadata
     id="metadata289">
    <rdf:RDF>
      <cc:Work
         rdf:about="">
        <dc:format>image/svg+xml</dc:format>
        <dc:type
           rdf:resource="http://purl.org/dc/dcmitype/StillImage" />
        <dc:title></dc:title>
      </cc:Work>
    </rdf:RDF>
  </metadata>
  <g
     inkscape:label="Capa 1"
     inkscape:groupmode="layer"
     id="layer1"
     transform="translate(-99.86131,-119.80208)">
    <g
       id="Group 3.2"
       transform="matrix(0.26458333,0,0,0.26458333,53.559227,111.32917)">
      <g
         id="Frame"
         clip-path="url(#clip1)">
        <g
           id="Group">
          <g
             id="Group_2">
            <g
               id="Group_3">
              <g
                 id="Group_4">
                <path
                   id="Vector"
                   d="m 220.333,61.3014 c 2.692,-2.6917 2.692,-7.0597 0,-9.7514 -1.298,-1.2986 -3.046,-2.0306 -4.887,-2.0306 -1.393,0 -2.692,0.4014 -3.825,1.157 -0.095,-0.0472 -0.213,-0.0472 -0.307,0 l -0.874,0.5667 c -0.165,0.0944 -0.189,0.3305 -0.047,0.4722 l 1.086,1.0861 c 0.142,0.1417 0.378,0.118 0.472,-0.0472 l 0.567,-0.8736 c 0.047,-0.0945 0.071,-0.2125 0.023,-0.307 0.874,-0.543 1.889,-0.8264 2.928,-0.8264 1.511,0 2.928,0.5903 4.014,1.6528 2.196,2.1958 2.196,5.8083 0,8.0042 L 209,70.8639 198.493,60.3569 c -1.063,-1.0625 -1.653,-2.4791 -1.653,-4.0138 0,-1.5112 0.59,-2.9278 1.653,-3.9903 1.062,-1.0625 2.479,-1.6528 4.014,-1.6528 1.086,0 2.148,0.3069 3.046,0.8972 -0.048,0.0945 -0.024,0.1889 0.023,0.2834 l 0.567,0.8736 c 0.094,0.1652 0.33,0.1889 0.472,0.0472 l 1.086,-1.0861 c 0.142,-0.1417 0.118,-0.3778 -0.047,-0.4722 l -0.874,-0.5667 c -0.094,-0.0708 -0.236,-0.0708 -0.33,0 -2.692,-1.8653 -6.422,-1.6056 -8.807,0.8028 -1.299,1.2986 -2.031,3.0458 -2.031,4.8875 0,1.8416 0.709,3.5652 2.031,4.8875 l 10.767,10.7666 v 5.407 c -1.181,0.2833 -2.078,1.3458 -2.078,2.6208 0,1.4875 1.204,2.6917 2.691,2.6917 1.488,0 2.692,-1.2042 2.692,-2.6917 0,-1.275 -0.897,-2.3375 -2.078,-2.6208 v -5.407 z m -9.869,18.7472 c 0,0.8028 -0.661,1.4639 -1.464,1.4639 -0.803,0 -1.464,-0.6611 -1.464,-1.4639 0,-0.8028 0.661,-1.4639 1.464,-1.4639 0.803,0 1.464,0.6611 1.464,1.4639 z"
                   style="fill:url(#paint1_linear)"
                   inkscape:connector-curvature="0" />
              </g>
            </g>
          </g>
        </g>
        <path
           id="Vector_2"
           d="m 241.772,64.7722 c 0,-0.118 0,-0.2597 0,-0.3778 0,-0.118 0,-0.2361 0,-0.3541 0,-0.1181 0,-0.2361 0,-0.3306 -0.354,-11.1444 -6.28,-20.8958 -15.111,-26.5389 -0.448,-0.2833 -0.897,-0.5666 -1.346,-0.8264 -0.236,-0.118 -0.448,-0.2597 -0.684,-0.3777 -0.236,-0.1181 -0.473,-0.2361 -0.709,-0.3778 -0.236,-0.1181 -0.472,-0.2361 -0.708,-0.3542 -0.236,-0.118 -0.472,-0.2361 -0.708,-0.3305 -0.473,-0.2125 -0.968,-0.425 -1.464,-0.6139 -0.236,-0.0945 -0.496,-0.1889 -0.756,-0.2834 -0.26,-0.0944 -0.496,-0.1888 -0.755,-0.2597 -0.496,-0.1653 -1.016,-0.3305 -1.535,-0.4722 -0.236,-0.0708 -0.496,-0.1417 -0.732,-0.2125 -0.283,-0.0708 -0.567,-0.1417 -0.85,-0.2125 -0.26,-0.0708 -0.519,-0.1181 -0.803,-0.1653 -0.189,-0.0472 -0.378,-0.0708 -0.566,-0.118 -0.119,-0.0236 -0.237,-0.0473 -0.355,-0.0709 -0.259,-0.0472 -0.519,-0.0944 -0.802,-0.118 -0.78,-0.1181 -1.582,-0.2125 -2.385,-0.2597 -0.543,-0.0473 -1.063,-0.0709 -1.606,-0.0945 -0.307,0 -0.59,0 -0.897,0 -0.354,0 -0.708,0 -1.062,0.0236 -0.213,0 -0.425,0 -0.638,0.0236 -1.062,0.0473 -2.101,0.1653 -3.14,0.307 -0.189,0.0236 -0.402,0.0708 -0.59,0.0944 -0.402,0.0709 -0.827,0.1417 -1.228,0.2361 -0.236,0.0473 -0.472,0.0945 -0.709,0.1653 -0.33,0.0708 -0.637,0.1417 -0.944,0.2361 -0.213,0.0472 -0.449,0.1181 -0.661,0.1889 -0.307,0.0945 -0.59,0.1653 -0.897,0.2597 -0.166,0.0473 -0.331,0.0945 -0.496,0.1653 -0.331,0.1181 -0.638,0.2361 -0.968,0.3306 -0.166,0.0708 -0.354,0.118 -0.52,0.1889 -0.472,0.1888 -0.944,0.3777 -1.416,0.5902 -0.166,0.0709 -0.355,0.1653 -0.52,0.2361 -0.236,0.1181 -0.472,0.2125 -0.685,0.3306 -0.236,0.1181 -0.448,0.2361 -0.684,0.3542 -0.449,0.2361 -0.897,0.4722 -1.346,0.7319 -0.213,0.1181 -0.449,0.2597 -0.661,0.4014 -0.402,0.2361 -0.803,0.4958 -1.181,0.7556 -0.047,0.0236 -0.094,0.0708 -0.141,0.118 -0.189,0.1181 -0.378,0.2597 -0.567,0.4014 -0.236,0.1653 -0.496,0.3542 -0.732,0.5431 -0.354,0.2833 -0.708,0.5666 -1.063,0.8263 -0.401,0.3306 -0.802,0.6848 -1.18,1.0389 -0.401,0.2834 -0.779,0.6375 -1.11,0.9681 -0.354,0.3542 -0.708,0.7319 -1.062,1.1097 -0.024,0.0236 -0.048,0.0708 -0.095,0.0945 -0.472,0.543 -0.944,1.0861 -1.393,1.6291 -0.165,0.2125 -0.307,0.4014 -0.472,0.5903 -0.142,0.2125 -0.307,0.4014 -0.449,0.6139 -3.565,4.9347 -5.808,10.9319 -6.139,17.4014 -0.023,0.2833 -0.047,0.6139 -0.047,0.9444 v 0.1417 c 0,0.3069 -0.023,0.6375 -0.023,0.968 0,0.1889 0,0.4014 0,0.6139 0,0.1181 0,0.2125 0,0.3306 0.165,16.3625 12.962,34.6136 22.525,45.9946 3.282,3.896 6.162,6.965 8.027,8.901 1.323,1.37 2.149,2.149 2.243,2.243 0.095,-0.094 0.921,-0.897 2.244,-2.243 1.865,-1.936 4.745,-4.982 7.98,-8.854 9.633,-11.451 22.549,-29.8916 22.549,-46.3486 0.023,-0.3305 0.023,-0.6138 0.023,-0.8972 z m -32.796,21.6042 c -11.994,0 -21.722,-9.7278 -21.722,-21.7222 0,-11.9945 9.728,-21.7223 21.722,-21.7223 11.995,0 21.723,9.7278 21.723,21.7223 0,11.9944 -9.728,21.7222 -21.723,21.7222 z"
           style="fill:url(#paint2_linear)"
           inkscape:connector-curvature="0" />
        <g
           id="Group_5">
          <g
             id="Group_6">
            <path
               id="Vector_3"
               d="m 178.99,142.689 v -3.825 c 0,-0.638 -0.071,-1.11 -0.189,-1.37 -0.118,-0.259 -0.377,-0.401 -0.755,-0.401 -0.307,0 -0.567,0.094 -0.779,0.26 -0.189,0.165 -0.354,0.401 -0.449,0.661 v 4.675 H 175 v -7.013 h 1.417 l 0.212,0.921 h 0.047 c 0.213,-0.307 0.496,-0.566 0.827,-0.779 0.33,-0.212 0.755,-0.331 1.275,-0.331 0.448,0 0.826,0.095 1.11,0.284 0.283,0.189 0.495,0.496 0.661,0.921 0.212,-0.355 0.495,-0.661 0.826,-0.874 0.331,-0.212 0.732,-0.331 1.228,-0.331 0.401,0 0.732,0.048 0.991,0.142 0.284,0.095 0.496,0.26 0.685,0.472 0.165,0.236 0.307,0.543 0.378,0.921 0.094,0.378 0.118,0.874 0.118,1.464 v 4.203 h -1.818 v -3.943 c 0,-0.543 -0.047,-0.968 -0.165,-1.252 -0.118,-0.283 -0.378,-0.425 -0.779,-0.425 -0.331,0 -0.591,0.095 -0.78,0.26 -0.189,0.189 -0.33,0.425 -0.425,0.732 v 4.604 h -1.818 z"
               inkscape:connector-curvature="0"
               style="fill:#00f3ca" />
            <path
               id="Vector_4"
               d="m 185.956,139.194 c 0,-1.18 0.283,-2.101 0.873,-2.738 0.59,-0.638 1.393,-0.969 2.432,-0.969 0.567,0 1.039,0.095 1.464,0.26 0.401,0.189 0.756,0.425 1.015,0.756 0.26,0.33 0.473,0.708 0.614,1.18 0.142,0.449 0.213,0.968 0.213,1.511 0,1.181 -0.284,2.102 -0.874,2.739 -0.567,0.638 -1.393,0.968 -2.432,0.968 -0.567,0 -1.039,-0.094 -1.464,-0.259 -0.401,-0.189 -0.755,-0.425 -1.039,-0.756 -0.283,-0.33 -0.472,-0.708 -0.614,-1.18 -0.118,-0.449 -0.188,-0.969 -0.188,-1.512 z m 1.865,0 c 0,0.307 0.023,0.591 0.094,0.85 0.071,0.26 0.142,0.496 0.26,0.685 0.118,0.189 0.26,0.354 0.449,0.449 0.189,0.118 0.401,0.165 0.661,0.165 0.472,0 0.826,-0.165 1.062,-0.519 0.236,-0.355 0.354,-0.898 0.354,-1.63 0,-0.637 -0.118,-1.157 -0.33,-1.558 -0.213,-0.401 -0.59,-0.59 -1.086,-0.59 -0.449,0 -0.803,0.165 -1.063,0.496 -0.259,0.33 -0.401,0.873 -0.401,1.652 z"
               inkscape:connector-curvature="0"
               style="fill:#00f3ca" />
            <path
               id="Vector_5"
               d="m 196.084,139.36 0.237,1.086 h 0.07 l 0.189,-1.11 1.181,-3.636 h 1.96 l -2.928,7.083 h -1.11 l -3.046,-7.083 h 2.125 z"
               inkscape:connector-curvature="0"
               style="fill:#00f3ca" />
            <path
               id="Vector_6"
               d="m 200.217,133.717 c 0,-0.26 0.094,-0.496 0.307,-0.685 0.212,-0.189 0.472,-0.283 0.826,-0.283 0.354,0 0.638,0.094 0.874,0.283 0.212,0.189 0.33,0.425 0.33,0.685 0,0.259 -0.118,0.495 -0.33,0.684 -0.213,0.189 -0.496,0.284 -0.874,0.284 -0.354,0 -0.637,-0.095 -0.826,-0.284 -0.189,-0.189 -0.307,-0.425 -0.307,-0.684 z m 0.283,1.959 h 1.818 v 7.013 H 200.5 Z"
               inkscape:connector-curvature="0"
               style="fill:#00f3ca" />
            <path
               id="Vector_7"
               d="m 206.001,140.351 c 0,0.331 0.048,0.567 0.118,0.709 0.095,0.141 0.213,0.212 0.402,0.212 0.118,0 0.212,0 0.33,-0.023 0.118,-0.024 0.236,-0.071 0.402,-0.118 l 0.189,1.44 c -0.142,0.071 -0.378,0.141 -0.685,0.212 -0.307,0.071 -0.638,0.118 -0.945,0.118 -0.543,0 -0.944,-0.118 -1.227,-0.377 -0.284,-0.237 -0.425,-0.662 -0.425,-1.228 v -8.406 h 1.818 v 7.461 z"
               inkscape:connector-curvature="0"
               style="fill:#00f3ca" />
            <path
               id="Vector_8"
               d="m 212.211,142.689 v -3.825 c 0,-0.638 -0.071,-1.11 -0.189,-1.37 -0.118,-0.259 -0.378,-0.401 -0.755,-0.401 -0.307,0 -0.567,0.094 -0.78,0.26 -0.189,0.165 -0.354,0.401 -0.448,0.661 v 4.675 h -1.818 v -7.013 h 1.416 l 0.213,0.921 h 0.047 c 0.213,-0.307 0.496,-0.566 0.826,-0.779 0.331,-0.212 0.756,-0.331 1.275,-0.331 0.449,0 0.827,0.095 1.11,0.284 0.284,0.189 0.496,0.496 0.661,0.921 0.213,-0.355 0.496,-0.661 0.827,-0.874 0.33,-0.212 0.732,-0.331 1.227,-0.331 0.402,0 0.732,0.048 0.992,0.142 0.283,0.095 0.496,0.26 0.685,0.472 0.165,0.236 0.307,0.543 0.378,0.921 0.094,0.378 0.118,0.874 0.118,1.464 v 4.203 h -1.818 v -3.943 c 0,-0.543 -0.048,-0.968 -0.166,-1.252 -0.118,-0.283 -0.377,-0.425 -0.779,-0.425 -0.33,0 -0.59,0.095 -0.779,0.26 -0.189,0.165 -0.331,0.425 -0.425,0.732 v 4.604 h -1.818 z"
               inkscape:connector-curvature="0"
               style="fill:#00f3ca" />
            <path
               id="Vector_9"
               d="m 225.127,142.099 c -0.284,0.236 -0.662,0.425 -1.134,0.566 -0.472,0.166 -0.991,0.236 -1.534,0.236 -1.134,0 -1.96,-0.33 -2.48,-0.991 -0.519,-0.661 -0.779,-1.559 -0.779,-2.716 0,-1.227 0.284,-2.148 0.874,-2.786 0.59,-0.614 1.416,-0.921 2.479,-0.921 0.354,0 0.708,0.048 1.039,0.142 0.33,0.095 0.637,0.236 0.897,0.472 0.26,0.213 0.472,0.496 0.638,0.874 0.165,0.354 0.236,0.826 0.236,1.369 0,0.189 0,0.402 -0.024,0.638 -0.024,0.212 -0.047,0.449 -0.094,0.708 h -4.203 c 0.023,0.591 0.189,1.039 0.448,1.322 0.284,0.307 0.709,0.449 1.346,0.449 0.378,0 0.732,-0.047 1.039,-0.165 0.307,-0.118 0.543,-0.236 0.685,-0.354 z m -2.598,-5.148 c -0.472,0 -0.826,0.142 -1.062,0.425 -0.236,0.284 -0.354,0.661 -0.402,1.134 h 2.598 c 0.047,-0.496 -0.048,-0.898 -0.236,-1.157 -0.189,-0.26 -0.496,-0.402 -0.898,-0.402 z"
               inkscape:connector-curvature="0"
               style="fill:#00f3ca" />
            <path
               id="Vector_10"
               d="m 232.611,140.233 c 0,0.402 0,0.779 0.024,1.181 0,0.401 0.047,0.826 0.118,1.298 h -1.299 l -0.259,-0.92 h -0.048 c -0.188,0.33 -0.448,0.59 -0.802,0.802 -0.355,0.213 -0.756,0.307 -1.252,0.307 -0.873,0 -1.558,-0.283 -2.054,-0.873 -0.496,-0.591 -0.732,-1.488 -0.732,-2.716 0,-1.204 0.26,-2.125 0.803,-2.786 0.543,-0.661 1.346,-0.991 2.385,-0.991 0.283,0 0.519,0.023 0.708,0.047 0.189,0.024 0.378,0.094 0.567,0.165 v -2.857 h 1.818 v 7.343 z m -3.093,1.11 c 0.354,0 0.638,-0.094 0.85,-0.26 0.213,-0.165 0.354,-0.425 0.425,-0.755 v -2.975 c -0.141,-0.095 -0.283,-0.189 -0.425,-0.236 -0.165,-0.048 -0.354,-0.071 -0.614,-0.071 -0.519,0 -0.897,0.165 -1.157,0.519 -0.259,0.354 -0.377,0.945 -0.377,1.771 0,0.59 0.094,1.086 0.307,1.44 0.188,0.402 0.519,0.567 0.991,0.567 z"
               inkscape:connector-curvature="0"
               style="fill:#00f3ca" />
            <path
               id="Vector_11"
               d="m 234.099,133.717 c 0,-0.26 0.094,-0.496 0.307,-0.685 0.212,-0.189 0.472,-0.283 0.826,-0.283 0.354,0 0.637,0.094 0.874,0.283 0.212,0.189 0.33,0.425 0.33,0.685 0,0.259 -0.118,0.495 -0.33,0.684 -0.213,0.189 -0.496,0.284 -0.874,0.284 -0.354,0 -0.638,-0.095 -0.826,-0.284 -0.213,-0.189 -0.307,-0.425 -0.307,-0.684 z m 0.259,1.959 h 1.818 v 7.013 h -1.818 z"
               inkscape:connector-curvature="0"
               style="fill:#00f3ca" />
            <path
               id="Vector_12"
               d="m 242.953,142.264 c -0.283,0.212 -0.614,0.354 -1.015,0.472 -0.402,0.118 -0.803,0.165 -1.228,0.165 -0.567,0 -1.039,-0.094 -1.417,-0.259 -0.378,-0.189 -0.708,-0.425 -0.944,-0.756 -0.236,-0.33 -0.425,-0.708 -0.52,-1.18 -0.118,-0.449 -0.165,-0.969 -0.165,-1.512 0,-1.18 0.26,-2.101 0.803,-2.738 0.543,-0.638 1.298,-0.969 2.337,-0.969 0.52,0 0.921,0.048 1.252,0.119 0.307,0.094 0.59,0.188 0.85,0.33 l -0.425,1.488 c -0.213,-0.095 -0.425,-0.189 -0.638,-0.237 -0.212,-0.047 -0.448,-0.094 -0.732,-0.094 -0.496,0 -0.897,0.165 -1.157,0.496 -0.259,0.33 -0.401,0.873 -0.401,1.582 0,0.307 0.024,0.566 0.094,0.826 0.071,0.26 0.166,0.472 0.284,0.661 0.141,0.189 0.307,0.331 0.519,0.449 0.213,0.118 0.449,0.165 0.732,0.165 0.307,0 0.567,-0.047 0.779,-0.118 0.213,-0.071 0.402,-0.165 0.567,-0.283 z"
               inkscape:connector-curvature="0"
               style="fill:#00f3ca" />
          </g>
        </g>
        <g
           id="Group_7">
          <path
             id="Vector_13"
             d="m 243,122.407 c 0,2.03 -2.503,3.117 -3.329,3.447 -1.747,0.732 -4.179,1.393 -7.296,1.96 -6.257,1.133 -14.568,1.747 -23.375,1.747 -8.831,0 -17.118,-0.614 -23.375,-1.747 -3.093,-0.567 -5.549,-1.228 -7.296,-1.96 -0.826,-0.354 -3.329,-1.417 -3.329,-3.447 0,-2.031 2.503,-3.117 3.329,-3.447 1.747,-0.732 4.179,-1.393 7.296,-1.96 3.4,-0.614 7.414,-1.086 11.782,-1.369 l 2.219,2.384 c -4.793,0.26 -9.208,0.709 -12.915,1.346 -7.768,1.322 -9.043,2.833 -9.185,3.07 0.166,0.236 1.417,1.747 9.185,3.069 5.832,0.992 13.411,1.558 21.439,1.606 0.283,0 0.567,0 0.85,0 0.283,0 0.567,0 0.85,0 8.028,-0.048 15.607,-0.614 21.439,-1.606 7.768,-1.322 9.043,-2.833 9.185,-3.069 -0.166,-0.237 -1.417,-1.748 -9.185,-3.07 -3.731,-0.637 -8.193,-1.11 -13.01,-1.369 l 2.196,-2.385 c 4.415,0.307 8.453,0.755 11.9,1.393 3.093,0.567 5.549,1.228 7.296,1.96 0.826,0.354 3.329,1.416 3.329,3.447 z"
             style="fill:url(#paint3_linear)"
             inkscape:connector-curvature="0" />
        </g>
      </g>
    </g>
  </g>
</svg>
