<?xml version="1.0" encoding="UTF-8" standalone="no"?>
<!-- Created with Inkscape (http://www.inkscape.org/) -->

<svg
   xmlns:dc="http://purl.org/dc/elements/1.1/"
   xmlns:cc="http://creativecommons.org/ns#"
   xmlns:rdf="http://www.w3.org/1999/02/22-rdf-syntax-ns#"
   xmlns:svg="http://www.w3.org/2000/svg"
   xmlns="http://www.w3.org/2000/svg"
   xmlns:sodipodi="http://sodipodi.sourceforge.net/DTD/sodipodi-0.dtd"
   xmlns:inkscape="http://www.inkscape.org/namespaces/inkscape"
   width="17.197916mm"
   height="13.219112mm"
   viewBox="0 0 17.197917 13.219112"
   version="1.1"
   id="svg292"
   inkscape:version="0.92.3 (2405546, 2018-03-11)"
   sodipodi:docname="medico.svg">
  <defs
     id="defs286">
    <clipPath
       id="clip1">
      <rect
         style="fill:#ffffff"
         y="0"
         x="0"
         width="68"
         height="110.901"
         transform="translate(175,32)"
         id="rect254" />
    </clipPath>
    <linearGradient
       id="paint1_linear"
       x1="195.599"
       y1="66.098701"
       x2="222.34"
       y2="66.098701"
       gradientUnits="userSpaceOnUse">
      <stop
         offset="2.66389e-07"
         stop-color="#00F3CA"
         id="stop171" />
      <stop
         offset="1"
         stop-color="#24A6E2"
         id="stop173" />
    </linearGradient>
    <linearGradient
       id="paint2_linear"
       x1="176.007"
       y1="77.558601"
       x2="244.457"
       y2="77.558601"
       gradientUnits="userSpaceOnUse">
      <stop
         offset="2.66389e-07"
         stop-color="#00F3CA"
         id="stop176" />
      <stop
         offset="1"
         stop-color="#24A6E2"
         id="stop178" />
    </linearGradient>
    <linearGradient
       id="paint3_linear"
       x1="175"
       y1="122.595"
       x2="243"
       y2="122.595"
       gradientUnits="userSpaceOnUse">
      <stop
         offset="2.66389e-07"
         stop-color="#00F3CA"
         id="stop181" />
      <stop
         offset="1"
         stop-color="#24A6E2"
         id="stop183" />
    </linearGradient>
  </defs>
  <sodipodi:namedview
     id="base"
     pagecolor="#ffffff"
     bordercolor="#666666"
     borderopacity="1.0"
     inkscape:pageopacity="0.0"
     inkscape:pageshadow="2"
     inkscape:zoom="2.8"
     inkscape:cx="48.699906"
     inkscape:cy="12.029152"
     inkscape:document-units="mm"
     inkscape:current-layer="layer1"
     showgrid="false"
     inkscape:window-width="1366"
     inkscape:window-height="728"
     inkscape:window-x="1600"
     inkscape:window-y="0"
     inkscape:window-maximized="1" />
  <metadata
     id="metadata289">
    <rdf:RDF>
      <cc:Work
         rdf:about="">
        <dc:format>image/svg+xml</dc:format>
        <dc:type
           rdf:resource="http://purl.org/dc/dcmitype/StillImage" />
        <dc:title></dc:title>
      </cc:Work>
    </rdf:RDF>
  </metadata>
  <g
     inkscape:label="Capa 1"
     inkscape:groupmode="layer"
     id="layer1"
     transform="translate(-97.940854,-125.735)">
    <g
       transform="matrix(0.26458333,0,0,0.26458333,51.374188,70.701665)"
       id="Group_8">
      <path
         style="fill:#00baba"
         inkscape:connector-curvature="0"
         id="Vector_14"
         d="m 216.238,208 h -14.842 c -2.126,0 -3.878,1.749 -3.878,3.954 v 7.681 c 0,2.167 1.752,3.954 3.878,3.954 h 14.842 c 2.126,0 3.879,-1.787 3.879,-3.954 v -7.681 c 0,-2.205 -1.716,-3.954 -3.879,-3.954 z m 1.305,11.635 c 0,0.722 -0.559,1.331 -1.305,1.331 h -14.842 c -0.709,0 -1.305,-0.571 -1.305,-1.331 v -7.681 c 0,-0.722 0.559,-1.33 1.305,-1.33 h 14.842 c 0.709,0 1.305,0.57 1.305,1.33 z" />
      <path
         style="fill:#00baba"
         inkscape:connector-curvature="0"
         id="Vector_15"
         d="m 237.122,216.061 h -57.244 c -2.163,0 -3.878,1.787 -3.878,3.954 v 33.993 c 0,2.167 1.715,3.954 3.878,3.954 h 57.244 c 2.125,0 3.878,-1.787 3.878,-3.954 v -33.993 c 0,-2.167 -1.753,-3.954 -3.878,-3.954 z m -19.057,22.547 h -6.712 v 6.883 h -5.035 v -6.883 h -6.749 v -5.095 h 6.749 v -6.882 h 5.035 v 6.882 h 6.75 v 5.095 z" />
    </g>
  </g>
</svg>
