<svg width="180" height="15" viewBox="0 0 180 15" fill="none" xmlns="http://www.w3.org/2000/svg">
<path opacity="0.5" d="M6.8125 11C6.72917 10.7396 6.59375 10.599 6.40625 10.5781H5.34375V2.04688H5.8125C6.57292 2.04688 7.11458 2.43229 7.4375 3.20312C7.48958 3.32812 7.53646 3.45833 7.57812 3.59375L7.98438 4.89062H8.4375L8.375 1.625H0.40625L0.328125 4.89062H0.796875L1.20312 3.59375C1.45312 2.78125 1.85417 2.29167 2.40625 2.125C2.57292 2.07292 2.76042 2.04688 2.96875 2.04688H3.42188V10.5781H1.9375V11H6.8125ZM13.7188 4.5C14.3646 4.5 14.75 4.88021 14.875 5.64062C14.9062 5.80729 14.9219 5.97917 14.9219 6.15625C14.9219 6.64583 14.7448 6.95312 14.3906 7.07812C14.1615 7.14062 13.8281 7.16667 13.3906 7.15625L12.1875 7.10938C12.2292 5.63021 12.6198 4.77604 13.3594 4.54688C13.4844 4.51562 13.6042 4.5 13.7188 4.5ZM16.5781 9.42188L16.2031 9.29688C15.901 9.95312 15.4219 10.3854 14.7656 10.5938C14.5469 10.6667 14.3229 10.7031 14.0938 10.7031C12.875 10.7031 12.2396 9.66667 12.1875 7.59375C12.1875 7.58333 12.1875 7.57292 12.1875 7.5625L13.7656 7.59375C15.3281 7.625 16.2656 7.40104 16.5781 6.92188C16.6823 6.75521 16.7344 6.55729 16.7344 6.32812C16.7344 5.50521 16.3177 4.88542 15.4844 4.46875C14.9635 4.21875 14.375 4.09375 13.7188 4.09375C12.5208 4.09375 11.6042 4.52604 10.9688 5.39062C10.5208 6.00521 10.2969 6.75 10.2969 7.625C10.2969 9.05208 10.8229 10.0729 11.875 10.6875C12.4375 11 13.0677 11.1562 13.7656 11.1562C14.9531 11.1562 15.8125 10.7344 16.3438 9.89062C16.4375 9.73438 16.5156 9.57812 16.5781 9.42188ZM15.0156 2.21875C15.2031 2.0625 15.3021 1.86979 15.3125 1.64062C15.3125 1.30729 15.1615 1.05208 14.8594 0.875C14.7344 0.802083 14.6094 0.765625 14.4844 0.765625C14.3281 0.765625 14.1719 0.828125 14.0156 0.953125C13.8906 1.04688 13.625 1.36458 13.2188 1.90625C12.8438 2.38542 12.4635 2.80208 12.0781 3.15625L12.3125 3.46875C12.5938 3.3125 13.2292 3.03125 14.2188 2.625C14.6042 2.46875 14.8698 2.33333 15.0156 2.21875ZM22.3906 10.5938H21.25V7.20312C21.3229 6.20312 21.6042 5.53125 22.0938 5.1875C22.2083 5.11458 22.3073 5.07812 22.3906 5.07812C22.526 5.07812 22.6615 5.19792 22.7969 5.4375C22.974 5.77083 23.1615 5.96875 23.3594 6.03125C23.4531 6.0625 23.5521 6.07812 23.6562 6.07812C24.0312 6.07812 24.2969 5.89583 24.4531 5.53125C24.5052 5.41667 24.5312 5.29688 24.5312 5.17188C24.5312 4.67188 24.2865 4.35938 23.7969 4.23438C23.6719 4.20312 23.5469 4.1875 23.4219 4.1875C22.7865 4.1875 22.2188 4.44792 21.7188 4.96875C21.5 5.20833 21.3281 5.47917 21.2031 5.78125L21.1094 4.3125H18.5312V4.70312H19.5156V9.75C19.5156 10.1979 19.3594 10.4635 19.0469 10.5469C18.9115 10.5781 18.7396 10.5938 18.5312 10.5938V11H22.7656C22.7656 10.7604 22.6875 10.6302 22.5312 10.6094C22.4896 10.599 22.4427 10.5938 22.3906 10.5938ZM29.1094 10.5938H28.6875L28.7031 6.73438C28.776 5.88021 29.0781 5.30208 29.6094 5C29.776 4.90625 29.9427 4.85938 30.1094 4.85938C30.5365 4.85938 30.8385 5.11458 31.0156 5.625C31.0885 5.85417 31.125 6.11458 31.125 6.40625V9.75C31.125 10.1771 31.026 10.4323 30.8281 10.5156C30.7135 10.5677 30.5417 10.5938 30.3125 10.5938V11H33.6406C33.6406 10.7708 33.5729 10.6406 33.4375 10.6094C33.375 10.599 33.3125 10.5938 33.25 10.5938H32.8438V6.64062V6.4375C32.9583 5.66667 33.2656 5.16146 33.7656 4.92188C33.901 4.85938 34.0365 4.82812 34.1719 4.82812C34.651 4.82812 34.9844 5.09375 35.1719 5.625C35.2448 5.86458 35.2812 6.125 35.2812 6.40625V9.75C35.2812 10.1771 35.1823 10.4323 34.9844 10.5156C34.8698 10.5677 34.6979 10.5938 34.4688 10.5938V11H37.9844C37.9844 10.7708 37.9167 10.6406 37.7812 10.6094C37.7188 10.599 37.6562 10.5938 37.5938 10.5938H37V6.57812C37 5.54688 36.6562 4.81771 35.9688 4.39062C35.6562 4.19271 35.3177 4.09375 34.9531 4.09375C33.974 4.09375 33.2396 4.56771 32.75 5.51562C32.7292 5.55729 32.7135 5.59375 32.7031 5.625C32.474 4.85417 32.0365 4.36979 31.3906 4.17188C31.224 4.11979 31.0521 4.09375 30.875 4.09375C29.9583 4.09375 29.2656 4.5 28.7969 5.3125C28.7552 5.39583 28.7135 5.47917 28.6719 5.5625L28.5938 4.3125H25.9688V4.70312H26.9688V9.75C26.9688 10.2083 26.7969 10.474 26.4531 10.5469C26.3177 10.5781 26.1562 10.5938 25.9688 10.5938V11H29.4844C29.4844 10.7604 29.4062 10.6302 29.25 10.6094C29.2083 10.599 29.1615 10.5938 29.1094 10.5938ZM43.0781 10.5938H42.4375V4.3125H39.7031V4.70312H40.7188V9.75C40.7188 10.1979 40.5469 10.4635 40.2031 10.5469C40.0781 10.5781 39.9115 10.5938 39.7031 10.5938V11H43.4531C43.4531 10.7604 43.375 10.6302 43.2188 10.6094C43.1771 10.599 43.1302 10.5938 43.0781 10.5938ZM42.5938 2.1875C42.5938 1.76042 42.401 1.44271 42.0156 1.23438C41.8594 1.15104 41.6979 1.10938 41.5312 1.10938C41.1042 1.10938 40.7917 1.30208 40.5938 1.6875C40.5104 1.85417 40.4688 2.02083 40.4688 2.1875C40.4688 2.625 40.6615 2.9375 41.0469 3.125C41.2031 3.19792 41.3646 3.23438 41.5312 3.23438C41.9583 3.23438 42.2708 3.05208 42.4688 2.6875C42.5521 2.53125 42.5938 2.36458 42.5938 2.1875ZM48.3906 10.5938H47.9062L47.9219 6.73438C47.9948 5.90104 48.3073 5.32812 48.8594 5.01562C49.0573 4.91146 49.2552 4.85938 49.4531 4.85938C50.0365 4.85938 50.4062 5.16667 50.5625 5.78125C50.6146 5.96875 50.6406 6.17708 50.6406 6.40625V9.75C50.6406 10.1875 50.5208 10.4479 50.2812 10.5312C50.1667 10.5729 50 10.5938 49.7812 10.5938V11H53.3594C53.3594 10.7708 53.2917 10.6406 53.1562 10.6094C53.0938 10.599 53.0312 10.5938 52.9688 10.5938H52.3594V6.64062C52.3594 5.41146 51.9323 4.61979 51.0781 4.26562C50.8073 4.15104 50.5156 4.09375 50.2031 4.09375C49.4531 4.09375 48.8177 4.39062 48.2969 4.98438C48.1302 5.18229 47.9948 5.39062 47.8906 5.60938L47.8125 4.3125H45.1875V4.70312H46.1875V9.75C46.1875 10.2083 46.0156 10.474 45.6719 10.5469C45.5365 10.5781 45.375 10.5938 45.1875 10.5938V11H48.7812C48.7812 10.7708 48.7135 10.6406 48.5781 10.6094C48.5156 10.599 48.4531 10.5938 48.3906 10.5938ZM57.0469 7.625C57.0469 6.04167 57.3281 5.06771 57.8906 4.70312C58.1198 4.56771 58.3854 4.5 58.6875 4.5C59.4792 4.5 59.9792 4.94792 60.1875 5.84375C60.2917 6.28125 60.3438 6.85417 60.3438 7.5625C60.3438 9.23958 60.026 10.25 59.3906 10.5938C59.1823 10.6979 58.9479 10.75 58.6875 10.75C57.9062 10.75 57.4115 10.3021 57.2031 9.40625C57.099 8.95833 57.0469 8.36458 57.0469 7.625ZM58.75 4.09375C57.5625 4.09375 56.625 4.5 55.9375 5.3125C55.4167 5.9375 55.1562 6.6875 55.1562 7.5625C55.1562 8.77083 55.5833 9.71875 56.4375 10.4062C57.0625 10.9062 57.7969 11.1562 58.6406 11.1562C59.7969 11.1562 60.7188 10.7396 61.4062 9.90625C61.9479 9.25 62.2188 8.46875 62.2188 7.5625C62.2188 6.34375 61.7812 5.41146 60.9062 4.76562C60.3021 4.31771 59.5833 4.09375 58.75 4.09375ZM66.7656 10.7188C67.4635 10.7188 67.8958 10.4844 68.0625 10.0156C68.0938 9.91146 68.1094 9.80729 68.1094 9.70312C68.1094 9.20312 67.7812 8.78125 67.125 8.4375C66.9792 8.36458 66.75 8.26042 66.4375 8.125C65.6354 7.77083 65.099 7.44792 64.8281 7.15625C64.5469 6.82292 64.4062 6.4375 64.4062 6C64.4062 5.17708 64.8542 4.60938 65.75 4.29688C66.1458 4.16146 66.5885 4.09375 67.0781 4.09375C67.8385 4.09375 68.4635 4.23958 68.9531 4.53125C68.9531 4.21875 69.0365 4.04688 69.2031 4.01562C69.2552 4.00521 69.3073 4 69.3594 4V5.95312H68.8906C68.849 5.00521 68.3281 4.52604 67.3281 4.51562C66.6302 4.51562 66.1979 4.73438 66.0312 5.17188C65.9896 5.28646 65.9688 5.40104 65.9688 5.51562C65.9688 5.95312 66.2812 6.33333 66.9062 6.65625C67.0417 6.71875 67.2604 6.81771 67.5625 6.95312C68.3854 7.30729 68.9323 7.63542 69.2031 7.9375C69.5156 8.29167 69.6719 8.70833 69.6719 9.1875C69.6719 10.0729 69.2135 10.6667 68.2969 10.9688C67.9219 11.0938 67.5052 11.1562 67.0469 11.1562C66.1719 11.1562 65.4375 10.9844 64.8438 10.6406C64.8438 10.9115 64.776 11.0677 64.6406 11.1094C64.5781 11.1198 64.5052 11.125 64.4219 11.125V8.75H64.9219C64.9427 10.0521 65.5573 10.7083 66.7656 10.7188ZM77.125 13.5C76.9479 13.5 76.8073 13.3646 76.7031 13.0938C76.5677 12.7396 76.4427 12.5208 76.3281 12.4375C76.2135 12.3542 76.0729 12.3125 75.9062 12.3125C75.5521 12.3125 75.3281 12.4635 75.2344 12.7656C75.2135 12.8385 75.2031 12.9062 75.2031 12.9688C75.2031 13.3333 75.4219 13.6198 75.8594 13.8281C76.1302 13.9531 76.4271 14.0156 76.75 14.0156C77.6042 14.0156 78.3281 13.5104 78.9219 12.5C79.151 12.125 79.3698 11.6719 79.5781 11.1406L81.9062 5.1875C82.0208 4.90625 82.151 4.75 82.2969 4.71875C82.3385 4.70833 82.3854 4.70312 82.4375 4.70312C82.6562 4.70312 82.7812 4.63542 82.8125 4.5C82.8229 4.44792 82.8281 4.38542 82.8281 4.3125H80.4219V4.70312H81.5938L79.7812 9.26562L77.8281 4.70312H78.8125V4.3125H75.3281V4.70312H76.0312L79 11.2188C78.4688 12.5104 77.9583 13.25 77.4688 13.4375C77.3542 13.4792 77.2396 13.5 77.125 13.5ZM96.4375 10.3594C96.4271 10.7656 96.5104 10.9948 96.6875 11.0469C96.7604 11.0677 96.8542 11.0781 96.9688 11.0781V8.04688H96.5C96.0625 9.61979 95.2292 10.4948 94 10.6719C93.8229 10.6927 93.6458 10.7031 93.4688 10.7031C91.5938 10.6823 90.651 9.20312 90.6406 6.26562C90.6406 3.98438 91.276 2.59375 92.5469 2.09375C92.8594 1.97917 93.1979 1.92188 93.5625 1.92188C94.7396 1.92188 95.5885 2.5 96.1094 3.65625C96.224 3.92708 96.3281 4.22917 96.4219 4.5625H96.9219L96.875 1.54688C96.6146 1.54688 96.4583 1.63542 96.4062 1.8125C96.3854 1.91667 96.375 2.06771 96.375 2.26562C95.5104 1.73438 94.5104 1.46875 93.375 1.46875C91.6562 1.46875 90.3438 2.07812 89.4375 3.29688C88.7917 4.17188 88.4688 5.17188 88.4688 6.29688C88.4688 7.65104 88.901 8.78646 89.7656 9.70312C90.6823 10.6719 91.8854 11.1562 93.375 11.1562C94.4479 11.1458 95.4688 10.8802 96.4375 10.3594ZM100.812 7.625C100.812 6.04167 101.094 5.06771 101.656 4.70312C101.885 4.56771 102.151 4.5 102.453 4.5C103.245 4.5 103.745 4.94792 103.953 5.84375C104.057 6.28125 104.109 6.85417 104.109 7.5625C104.109 9.23958 103.792 10.25 103.156 10.5938C102.948 10.6979 102.714 10.75 102.453 10.75C101.672 10.75 101.177 10.3021 100.969 9.40625C100.865 8.95833 100.812 8.36458 100.812 7.625ZM102.516 4.09375C101.328 4.09375 100.391 4.5 99.7031 5.3125C99.1823 5.9375 98.9219 6.6875 98.9219 7.5625C98.9219 8.77083 99.349 9.71875 100.203 10.4062C100.828 10.9062 101.562 11.1562 102.406 11.1562C103.562 11.1562 104.484 10.7396 105.172 9.90625C105.714 9.25 105.984 8.46875 105.984 7.5625C105.984 6.34375 105.547 5.41146 104.672 4.76562C104.068 4.31771 103.349 4.09375 102.516 4.09375ZM111.062 10.5938H110.578L110.594 6.73438C110.667 5.90104 110.979 5.32812 111.531 5.01562C111.729 4.91146 111.927 4.85938 112.125 4.85938C112.708 4.85938 113.078 5.16667 113.234 5.78125C113.286 5.96875 113.312 6.17708 113.312 6.40625V9.75C113.312 10.1875 113.193 10.4479 112.953 10.5312C112.839 10.5729 112.672 10.5938 112.453 10.5938V11H116.031C116.031 10.7708 115.964 10.6406 115.828 10.6094C115.766 10.599 115.703 10.5938 115.641 10.5938H115.031V6.64062C115.031 5.41146 114.604 4.61979 113.75 4.26562C113.479 4.15104 113.188 4.09375 112.875 4.09375C112.125 4.09375 111.49 4.39062 110.969 4.98438C110.802 5.18229 110.667 5.39062 110.562 5.60938L110.484 4.3125H107.859V4.70312H108.859V9.75C108.859 10.2083 108.688 10.474 108.344 10.5469C108.208 10.5781 108.047 10.5938 107.859 10.5938V11H111.453C111.453 10.7708 111.385 10.6406 111.25 10.6094C111.188 10.599 111.125 10.5938 111.062 10.5938ZM123.219 11H125.844C125.844 10.7708 125.781 10.6406 125.656 10.6094C125.604 10.599 125.536 10.5938 125.453 10.5938H124.719V0.84375H121.547V1.25H122.984V4.82812C122.453 4.33854 121.802 4.09375 121.031 4.09375C120 4.09375 119.177 4.51042 118.562 5.34375C118.073 6.02083 117.828 6.83854 117.828 7.79688C117.828 9.08854 118.25 10.0417 119.094 10.6562C119.562 10.9896 120.083 11.1562 120.656 11.1562C121.677 11.1562 122.427 10.6875 122.906 9.75C122.958 9.65625 123 9.56771 123.031 9.48438L123.219 11ZM119.719 7.60938C119.719 6.10938 120.062 5.15625 120.75 4.75C120.969 4.625 121.198 4.5625 121.438 4.5625C122.156 4.5625 122.635 5.03646 122.875 5.98438C122.969 6.36979 123.016 6.8125 123.016 7.3125C123.016 8.77083 122.693 9.73958 122.047 10.2188C121.818 10.3854 121.562 10.4688 121.281 10.4688C120.51 10.4688 120.021 9.90625 119.812 8.78125C119.75 8.42708 119.719 8.03646 119.719 7.60938ZM130.922 10.5938H130.281V4.3125H127.547V4.70312H128.562V9.75C128.562 10.1979 128.391 10.4635 128.047 10.5469C127.922 10.5781 127.755 10.5938 127.547 10.5938V11H131.297C131.297 10.7604 131.219 10.6302 131.062 10.6094C131.021 10.599 130.974 10.5938 130.922 10.5938ZM130.438 2.1875C130.438 1.76042 130.245 1.44271 129.859 1.23438C129.703 1.15104 129.542 1.10938 129.375 1.10938C128.948 1.10938 128.635 1.30208 128.438 1.6875C128.354 1.85417 128.312 2.02083 128.312 2.1875C128.312 2.625 128.505 2.9375 128.891 3.125C129.047 3.19792 129.208 3.23438 129.375 3.23438C129.802 3.23438 130.115 3.05208 130.312 2.6875C130.396 2.53125 130.438 2.36458 130.438 2.1875ZM133.188 7.67188C133.188 9.09896 133.724 10.1094 134.797 10.7031C135.349 11.0052 135.984 11.1562 136.703 11.1562C137.786 11.1562 138.615 10.8125 139.188 10.125C139.365 9.91667 139.5 9.6875 139.594 9.4375L139.188 9.32812C138.865 10.0156 138.323 10.4479 137.562 10.625C137.365 10.6771 137.156 10.7031 136.938 10.7031C135.708 10.6823 135.089 9.67188 135.078 7.67188C135.078 5.76562 135.5 4.71354 136.344 4.51562C136.469 4.49479 136.589 4.48438 136.703 4.48438C137.193 4.48438 137.495 4.69792 137.609 5.125C137.63 5.21875 137.651 5.35938 137.672 5.54688C137.745 6.00521 137.87 6.29688 138.047 6.42188C138.182 6.50521 138.354 6.55208 138.562 6.5625C139.031 6.5625 139.323 6.38021 139.438 6.01562C139.458 5.93229 139.469 5.85417 139.469 5.78125C139.469 5.3125 139.182 4.90625 138.609 4.5625C138.078 4.25 137.443 4.09375 136.703 4.09375C135.536 4.09375 134.625 4.5 133.969 5.3125C133.448 5.94792 133.188 6.73438 133.188 7.67188ZM144.469 10.5938H143.828V4.3125H141.094V4.70312H142.109V9.75C142.109 10.1979 141.938 10.4635 141.594 10.5469C141.469 10.5781 141.302 10.5938 141.094 10.5938V11H144.844C144.844 10.7604 144.766 10.6302 144.609 10.6094C144.568 10.599 144.521 10.5938 144.469 10.5938ZM143.984 2.1875C143.984 1.76042 143.792 1.44271 143.406 1.23438C143.25 1.15104 143.089 1.10938 142.922 1.10938C142.495 1.10938 142.182 1.30208 141.984 1.6875C141.901 1.85417 141.859 2.02083 141.859 2.1875C141.859 2.625 142.052 2.9375 142.438 3.125C142.594 3.19792 142.755 3.23438 142.922 3.23438C143.349 3.23438 143.661 3.05208 143.859 2.6875C143.943 2.53125 143.984 2.36458 143.984 2.1875ZM148.625 7.625C148.625 6.04167 148.906 5.06771 149.469 4.70312C149.698 4.56771 149.964 4.5 150.266 4.5C151.057 4.5 151.557 4.94792 151.766 5.84375C151.87 6.28125 151.922 6.85417 151.922 7.5625C151.922 9.23958 151.604 10.25 150.969 10.5938C150.76 10.6979 150.526 10.75 150.266 10.75C149.484 10.75 148.99 10.3021 148.781 9.40625C148.677 8.95833 148.625 8.36458 148.625 7.625ZM150.328 4.09375C149.141 4.09375 148.203 4.5 147.516 5.3125C146.995 5.9375 146.734 6.6875 146.734 7.5625C146.734 8.77083 147.161 9.71875 148.016 10.4062C148.641 10.9062 149.375 11.1562 150.219 11.1562C151.375 11.1562 152.297 10.7396 152.984 9.90625C153.526 9.25 153.797 8.46875 153.797 7.5625C153.797 6.34375 153.359 5.41146 152.484 4.76562C151.88 4.31771 151.161 4.09375 150.328 4.09375ZM158.875 10.5938H158.391L158.406 6.73438C158.479 5.90104 158.792 5.32812 159.344 5.01562C159.542 4.91146 159.74 4.85938 159.938 4.85938C160.521 4.85938 160.891 5.16667 161.047 5.78125C161.099 5.96875 161.125 6.17708 161.125 6.40625V9.75C161.125 10.1875 161.005 10.4479 160.766 10.5312C160.651 10.5729 160.484 10.5938 160.266 10.5938V11H163.844C163.844 10.7708 163.776 10.6406 163.641 10.6094C163.578 10.599 163.516 10.5938 163.453 10.5938H162.844V6.64062C162.844 5.41146 162.417 4.61979 161.562 4.26562C161.292 4.15104 161 4.09375 160.688 4.09375C159.938 4.09375 159.302 4.39062 158.781 4.98438C158.615 5.18229 158.479 5.39062 158.375 5.60938L158.297 4.3125H155.672V4.70312H156.672V9.75C156.672 10.2083 156.5 10.474 156.156 10.5469C156.021 10.5781 155.859 10.5938 155.672 10.5938V11H159.266C159.266 10.7708 159.198 10.6406 159.062 10.6094C159 10.599 158.938 10.5938 158.875 10.5938ZM169.062 4.5C169.708 4.5 170.094 4.88021 170.219 5.64062C170.25 5.80729 170.266 5.97917 170.266 6.15625C170.266 6.64583 170.089 6.95312 169.734 7.07812C169.505 7.14062 169.172 7.16667 168.734 7.15625L167.531 7.10938C167.573 5.63021 167.964 4.77604 168.703 4.54688C168.828 4.51562 168.948 4.5 169.062 4.5ZM171.922 9.42188L171.547 9.29688C171.245 9.95312 170.766 10.3854 170.109 10.5938C169.891 10.6667 169.667 10.7031 169.438 10.7031C168.219 10.7031 167.583 9.66667 167.531 7.59375C167.531 7.58333 167.531 7.57292 167.531 7.5625L169.109 7.59375C170.672 7.625 171.609 7.40104 171.922 6.92188C172.026 6.75521 172.078 6.55729 172.078 6.32812C172.078 5.50521 171.661 4.88542 170.828 4.46875C170.307 4.21875 169.719 4.09375 169.062 4.09375C167.865 4.09375 166.948 4.52604 166.312 5.39062C165.865 6.00521 165.641 6.75 165.641 7.625C165.641 9.05208 166.167 10.0729 167.219 10.6875C167.781 11 168.411 11.1562 169.109 11.1562C170.297 11.1562 171.156 10.7344 171.688 9.89062C171.781 9.73438 171.859 9.57812 171.922 9.42188ZM176.531 10.7188C177.229 10.7188 177.661 10.4844 177.828 10.0156C177.859 9.91146 177.875 9.80729 177.875 9.70312C177.875 9.20312 177.547 8.78125 176.891 8.4375C176.745 8.36458 176.516 8.26042 176.203 8.125C175.401 7.77083 174.865 7.44792 174.594 7.15625C174.312 6.82292 174.172 6.4375 174.172 6C174.172 5.17708 174.62 4.60938 175.516 4.29688C175.911 4.16146 176.354 4.09375 176.844 4.09375C177.604 4.09375 178.229 4.23958 178.719 4.53125C178.719 4.21875 178.802 4.04688 178.969 4.01562C179.021 4.00521 179.073 4 179.125 4V5.95312H178.656C178.615 5.00521 178.094 4.52604 177.094 4.51562C176.396 4.51562 175.964 4.73438 175.797 5.17188C175.755 5.28646 175.734 5.40104 175.734 5.51562C175.734 5.95312 176.047 6.33333 176.672 6.65625C176.807 6.71875 177.026 6.81771 177.328 6.95312C178.151 7.30729 178.698 7.63542 178.969 7.9375C179.281 8.29167 179.438 8.70833 179.438 9.1875C179.438 10.0729 178.979 10.6667 178.062 10.9688C177.688 11.0938 177.271 11.1562 176.812 11.1562C175.938 11.1562 175.203 10.9844 174.609 10.6406C174.609 10.9115 174.542 11.0677 174.406 11.1094C174.344 11.1198 174.271 11.125 174.188 11.125V8.75H174.688C174.708 10.0521 175.323 10.7083 176.531 10.7188Z" fill="#0F062E"/>
</svg>
