<svg width="56" height="56" viewBox="0 0 56 56" fill="none" xmlns="http://www.w3.org/2000/svg">
<g filter="url(#filter0_d)">
<path fill-rule="evenodd" clip-rule="evenodd" d="M28 40C39.0457 40 48 31.0457 48 20C48 8.9543 39.0457 0 28 0C16.9543 0 8 8.9543 8 20C8 31.0457 16.9543 40 28 40Z" fill="#1DA1F2"/>
</g>
<path d="M37.8884 14.1518C37.1763 14.4587 36.4029 14.6797 35.6049 14.7656C36.4275 14.2746 37.0536 13.5011 37.3482 12.5804C36.5871 13.0346 35.7277 13.3661 34.8315 13.5379C34.1071 12.7645 33.0759 12.2857 31.9342 12.2857C29.7366 12.2857 27.9688 14.0658 27.9688 16.2511C27.9688 16.558 28.0056 16.865 28.067 17.1596C24.7768 16.9877 21.8426 15.4163 19.8906 13.01C19.5469 13.5993 19.3504 14.2746 19.3504 15.0112C19.3504 16.3862 20.0502 17.6016 21.1183 18.3136C20.4676 18.2891 19.8538 18.1049 19.3259 17.8103C19.3259 17.8225 19.3259 17.8471 19.3259 17.8594C19.3259 19.7868 20.6886 21.3828 22.5056 21.7511C22.1741 21.8371 21.8181 21.8862 21.4621 21.8862C21.2042 21.8862 20.9587 21.8616 20.7132 21.8248C21.2165 23.3962 22.6775 24.5379 24.4208 24.5748C23.058 25.6429 21.3516 26.269 19.4978 26.269C19.1663 26.269 18.8594 26.2567 18.5402 26.2199C20.2958 27.3493 22.3828 28 24.6295 28C31.9219 28 35.9118 21.9598 35.9118 16.7176C35.9118 16.5458 35.9118 16.3739 35.8996 16.202C36.673 15.6373 37.3482 14.9375 37.8884 14.1518Z" fill="white"/>
<defs>
<filter id="filter0_d" x="0" y="0" width="56" height="56" filterUnits="userSpaceOnUse" color-interpolation-filters="sRGB">
<feFlood flood-opacity="0" result="BackgroundImageFix"/>
<feColorMatrix in="SourceAlpha" type="matrix" values="0 0 0 0 0 0 0 0 0 0 0 0 0 0 0 0 0 0 127 0"/>
<feOffset dy="8"/>
<feGaussianBlur stdDeviation="4"/>
<feColorMatrix type="matrix" values="0 0 0 0 0.113725 0 0 0 0 0.631373 0 0 0 0 0.94902 0 0 0 0.2 0"/>
<feBlend mode="normal" in2="BackgroundImageFix" result="effect1_dropShadow"/>
<feBlend mode="normal" in="SourceGraphic" in2="effect1_dropShadow" result="shape"/>
</filter>
</defs>
</svg>
